<?xml version="1.0" encoding="UTF-8"?>
<svg id="Capa_1" xmlns="http://www.w3.org/2000/svg" version="1.1" viewBox="0 0 3401.57 1798.68">
  <!-- Generator: Adobe Illustrator 29.5.1, SVG Export Plug-In . SVG Version: 2.1.0 Build 141)  -->
  <defs>
    <style>
      .st0 {
        fill: #4b974c;
      }
    </style>
  </defs>
  <path class="st0" d="M706.41,982.84c.73-.7,1.46-1.39,2.19-2.09,5.02-.99,8.73-3.78,11.22-8.23,10.72-6.53,21.6-12.9,26.28-25.63,3.36-2.02,5.14-4.95,5.1-8.92,5.39-9.78,12.37-18.69,16.13-29.36,1.97-1.09,2.47-2.84,2.19-4.94.94-1.87,1.89-3.74,2.83-5.61,2.04-1.04,2.62-2.79,2.41-4.93,8.23-10.49,13.33-22.7,18.99-34.6,1.46-5.18,2.93-10.37,4.4-15.55,3.07-1.57,5.31-4.98,9.41-4.3,1.02,1.96,2.81,2.43,4.81,2.49,1.69,1.49,3.39,2.98,5.08,4.47,2.63,6.64,2.85,13.22-.42,19.74-7.77,7.47-12.25,16.9-15.96,26.8-2.86,1.86-4.54,4.37-4.31,7.91-5.13,5.53-7.81,12.16-8.8,19.55,2.95,10.09,9.11,5.89,14.9,3.36,2.36.02,4.36-.76,5.8-2.7,5.14-.28,10.35-.34,14.19-4.62,2.93-.6,5.87-1.2,8.8-1.8,2.22.84,4.07.42,5.42-1.63,3.84-.08,7.59-.5,10.8-2.9,6.75-1,13.22-3.9,20.25-3.05,1.14,1.2,2.28,2.39,3.43,3.58.25,5.6,5.2,6.08,8.78,8.06.23,2.64.45,5.28.68,7.92-4.18,4.81-9.67,7.54-15.5,9.71-6.49-.44-12.45,1.52-18.3,3.99-3.03-.68-5.87-.61-7.97,2.16-1.69.3-3.38.59-5.07.89-5.15-.71-9.52.98-13.37,4.32-24.38,6.89-44.85,21.32-65.14,35.44-10.39,7.24-13.88,21-19.65,32.22-14.21,27.61-27.89,55.5-41.75,83.29-1.76,3.53-3.96,6.98-4.92,10.73-2,7.84,1.13,12.38,9.53,10.38,6.72-1.6,13.41-3.97,19.6-7.04,46.19-22.89,92.7-45.2,138.16-69.47,20.29-10.83,38.92-25.07,57.35-39.01,26.13-19.77,53.67-38.16,75.8-62.54,19.3-21.25,40.1-41.75,51.16-69.23,2.4-1.9,2.57-4.61,2.64-7.35.73-1.96,1.46-3.91,2.19-5.87,1.97-1.36,2.28-3.27,1.76-5.44,4.54-7.31,4.23-15.4,3.75-23.51,2.11-2.83,2.1-5.61-.18-8.34-3.02-14.24-5.86-28.59-22.95-33.06-6.59-5.61-14.51-6.61-22.74-6.54-4.44-.8-8.87-1.59-13.31-2.39-17.91-2.55-35.4.46-52.86,3.94-3.47.36-6.94.72-10.41,1.09-6.35-1.12-12.63-1.52-18.55,1.77-1.72.27-3.44.53-5.16.8-5.45-.36-11.1-2.1-15.84,2.34-1.88.77-3.76,1.54-5.63,2.32-2.16-.29-3.98.16-5.02,2.31-3.87.03-7.31,1.25-10.36,3.63-2.25-.73-4.12-.34-5.4,1.82-2.64,1.04-5.27,2.07-7.91,3.11-2.15-.51-4.01-.17-5.29,1.84-4.95.77-9.78,1.84-13.63,5.39-5.98,1.85-12.68,1.39-17.9,5.62-3.06-.08-5.62,1.12-7.85,3.13-7.87,3.43-15.74,6.85-23.61,10.28-5.13.16-9.59,1.97-13.37,5.44-9.56,4.56-19.17,8.64-30.2,7.86-3.84-.27-7.64.93-9.65,4.93,0,0-.19.05-.19.05-3.12.07-4.99,1.92-6.32,4.5-.56-.06-.96.16-1.19.67-3.23.03-5.31,1.79-6.73,4.51-5.74,1.28-10.09,4.92-14.45,8.54-3.77.39-6.64,2.25-8.71,5.39-1.46.88-2.93,1.76-4.39,2.64-3.75.4-6.45,2.44-8.54,5.44-9.84,9.15-23.82,11.61-33.59,20.85-3.75.43-6.57,2.29-8.51,5.51-9.13,5.26-18.23,10.56-25.71,18.15-.99.91-1.98,1.83-2.97,2.74,0,0-.09-.01-.08,0-3.54.6-5.96,2.63-7.44,5.86-5.3,4.13-10.6,8.26-15.9,12.4-3.4.97-6.34,2.54-7.83,6-5.95,3.27-11.65,6.86-15.99,12.23-14.97,11.55-29.66,23.4-42.25,37.62-8.93,10.5-21.36,18.12-26.24,31.94-1.78,3.27-3.57,6.54-5.36,9.8,0,0-.05.21-.05.22-12.9,11.97-12.89,27.3-11.24,43.07.16,3.32,1.84,5.45,5.05,6.35,10.24,18.7,9.44,20.77-8.25,21.34-1.81-.24-3.61-.49-5.42-.73-1.13-1.73-2.78-2.08-4.67-1.77,0,0-.15-.06-.16-.06-5.36-4.63-6.93-11.11-8.54-17.57-.03-3.43-.97-6.47-3.77-8.7-3.73-19.81,6.81-36.23,12.8-53.72.81-1.49,1.62-2.97,2.43-4.46,4.37-4.75,11.65-6.62,13.6-13.76,27.11-32.18,58.53-60.07,88.82-89.09,5-1.09,8.47-4.12,10.81-8.56,4.32-3.24,8.65-6.48,12.97-9.73,3.9-.43,6.48-2.59,8.02-6.11,2.52-1.58,5.03-3.17,7.55-4.76,3.66-.61,6.57-2.33,8.36-5.69,3.34-2.52,6.68-5.03,10.02-7.55,3.85-.22,6.77-1.99,8.79-5.27,10.23-6.14,20.46-12.29,30.7-18.43,3.87,0,6.87-1.65,9.1-4.76.6.22,1.06.05,1.37-.51,2.19.33,4-.19,5.05-2.33,8.73-4.7,17.46-9.4,26.2-14.1,3.73.27,6.8-1.19,9.5-3.63,6.78-1.56,13.8-2.39,19.76-6.45,2.12.32,3.85-.27,5.08-2.1,11.47-.7,20.23-7.57,29.59-13.04,7.04-2.72,13.23-6.64,17.88-12.71,1.85-1.14,3.7-2.27,5.55-3.41,2.16.01,3.96-.6,4.88-2.76,6.25-2.59,12.51-5.19,18.76-7.79,2.86.38,5.5,0,7.57-2.27,2.56-.48,5.11-.96,7.67-1.45,6.37,1.27,12.59,1.82,17.55-3.65,12.5.62,22.53-5.66,32.65-11.7,4.16.32,7.4-1.78,10.58-4.02,1.71-.48,3.42-.95,5.12-1.43,2.12.73,3.96.42,5.4-1.41,8.7-1.38,17.4-2.75,26.09-4.13,3.74.88,7.39,1.01,10.74-1.33,1.76-.23,3.52-.46,5.28-.69,10.35.03,20.7.05,31.05.08,1.77.26,3.54.51,5.3.77,1.45,1.85,3.31,2.1,5.42,1.4,1.7.4,3.41.8,5.11,1.2,2.09,2.48,4.83,2.57,7.73,2.09,3.25,2.12,6.81,3.2,10.7,3.18,1.44,1.9,3.29,2.2,5.43,1.42,22.76,3.28,35.88,18.63,46.48,37.13.79,1.66,1.57,3.32,2.36,4.98.21,3.8.88,7.45,3.59,10.39-.28,4.26.65,8.6,5.44,8.76,4.55.15,6.13-4.06,6.62-8.23,2.32-2.29,2.89-5.21,2.98-8.3,2.48-2.33,2.54-5.09,1.4-8.05.36-1.7.72-3.41,1.07-5.11,1.96-1.43,2.27-3.3,1.42-5.46.42-2.57.84-5.13,1.25-7.7,2.62-2.25,2.8-5,1.62-8.02.3-1.72.6-3.44.89-5.16,2.54-4.57,2.95-8.95-1.22-12.89-.53-5.35-1.06-10.7-1.59-16.05,2.13-.98,2.68-2.78,2.54-4.93.72-.73,1.44-1.47,2.16-2.2,2.99.19,5.97.37,8.96.56,5.95,5.24,9.94,11.67,11.67,19.45-.09,7.89-.18,15.79-.27,23.68-.49,2.56-.98,5.11-1.46,7.67-2.42,2.17-2.49,4.91-1.86,7.81-1.11,4.42-2.22,8.83-3.33,13.25-1.95,1.41-2.24,3.27-1.45,5.42-.32,1.71-.64,3.43-.96,5.14-1.86,1.48-2.16,3.35-1.34,5.49-.4,1.68-.79,3.36-1.19,5.04-2.74,2.06-3,4.8-2.18,7.85-1.08,3.53-2.16,7.06-3.24,10.59-3.17,3.9-4.12,8.47-4.04,13.35-.44,1.68-.87,3.37-1.31,5.05-2.04,1.39-2.26,3.28-1.48,5.43-1.26,4.34-2.52,8.67-3.79,13.01-1.88,1.42-2.2,3.28-1.49,5.42-1.17,4.34-2.35,8.68-3.52,13.02-2.24,1.27-2.61,3.15-1.74,5.42-1.38,5.21-2.76,10.43-4.14,15.64-1.69,1.44-1.99,3.25-1.43,5.3-7.23,21.94-14.45,43.87-21.68,65.81-6.79,28.22-20.16,53.79-32.38,79.81-2.36,5.02-4.1,12.36-9.8,13.25-9.42,1.47-11.43,8.7-14.64,14.97-4.17,8.16-6.9,17.05-11.14,25.17-4.02,7.7-7.83,21.92-16.59,17.97-8.35-3.76-2.83-16.79,1.35-25.52,7.34-15.33,14.47-30.76,21.69-46.15.95-1.79,1.9-3.58,2.85-5.37,3.49-4.32,6.98-8.64,10.47-12.96,3.02-1.85,3.65-4.9,4.05-8.06,3.29-14.08,14.06-26.05,11.83-41.7,0,0-.02-.07-.02-.07,3.26-1.55,5.33-4.04,6.02-7.62,3.38-3.97,4.02-8.94,4.99-13.78,2.57-1.95,2.92-4.64,2.57-7.58.9-2.74,1.79-5.48,2.69-8.22,2.48-1.98,3-4.62,2.56-7.58,3.18-7.86,7.17-15.43,8.35-23.99,1.74-1.32,2.13-3.1,1.8-5.14,2.82-3.03,3.27-6.81,3.4-10.7,4.83-7.45,5.13-15.39,3.52-25.08-7.56,4.38-10.05,10.88-13.74,16.34-7.09,10.23-14.19,20.46-21.28,30.7-3.57,5.53-7.14,11.06-10.72,16.59-3.23,3.5-6.46,6.99-9.69,10.49-.9,1.02-1.8,2.03-2.7,3.05,0,0,.11-.11.11-.11-.96.85-1.93,1.7-2.89,2.55,0,0,.14-.11.14-.11-1.18.81-2.37,1.61-3.55,2.42-26.92,21.9-53.85,43.8-80.77,65.71-3.75.45-6.57,2.28-8.34,5.65-20.89,13.08-41.78,26.16-62.68,39.24-2.22-.12-4.1.4-4.99,2.73-7.18,1.74-12.76,6.41-18.81,10.24-2.13-.14-3.96.32-4.97,2.45-6.06,3.05-12.11,6.09-18.17,9.14-6.35,0-11.46,2.84-16,6.99-1.82.94-3.63,1.89-5.45,2.83-2.18-.24-3.98.34-5.09,2.39-15.55,4.78-29.96,12.23-44.69,18.94-1.78.43-3.56.85-5.33,1.28-11.26.52-22.09,2.51-31.52,9.25-5.84-.34-11.18,1.07-15.88,4.63-3.01.05-5.95.3-8.2,2.69-8.36.9-14.17,4.22-13.23,13.94-.59.37-.69.85-.32,1.44-7.85,21.29-15.7,42.58-23.55,63.87,0,0,.04.08.04.08-.52,1.11-1.05,2.22-1.58,3.32-.63.43-.9,1.02-.8,1.77-5.64,6.22-8.24,13.89-10.35,21.79-.61.26-.81.7-.59,1.33-5.88,6.13-7.64,14.33-10.94,21.75-.51.98-1.03,1.96-1.54,2.94-1.55.48-2.14,1.51-1.78,3.09-.65.56-.96,1.26-.92,2.11-6.09,6.71-8.25,15.36-11.53,23.45-1.01,1.9-2.02,3.8-3.03,5.7-2.93,4.89-6.03,9.7-6.86,15.52,0,0,.1-.04.1-.04-1.65.45-2.31,1.55-2.13,3.22-.63.25-.87.7-.7,1.36-1.6.81-2.3,2.1-2.03,3.89-1.06,2.58-2.13,5.17-3.19,7.75-4.02,8.03-8.07,16.05-12.06,24.09-3.52,7.08-8.6,12.58-17.05,11.19-8.61-1.41-11.69-7.94-11.35-16.24,1.78-4.04,3.56-8.08,5.34-12.12,3.31-2.05,4.88-5.08,5.04-8.92,3.19-2.9,4.8-6.67,5.89-10.72,3.67-6.66,7.34-13.32,11.01-19.98,2.54-1.47,2.92-3.77,2.48-6.39,4.34-11.63,11.68-21.97,14.66-34.18.61-.36.74-.84.4-1.46,4.23-4.9,9.19-9.24,11.62-15.49,4.54-5.87,8.96-11.79,7.09-19.94,2.05-1.93,2.45-4.4,2.32-7.05,0,0,.17-.39.17-.39,3.41-2.36,5.24-5.59,5.38-9.75,0,0,.27-.66.27-.66,9.33-10.99,13.88-24.64,20.64-37.07,4.68-4.39,7.26-9.87,8.31-16.13.77-1.63,1.54-3.26,2.31-4.9.94-1.88,1.88-3.76,2.82-5.64,3.98-4.04,2.27-6.3-2.4-7.63-12.47-3.59-22.47-11.12-31.7-19.88-.69-1.54-1.38-3.09-2.06-4.64-.5-3.49-1.01-6.98-1.51-10.47-.18-13.1,4.67-24.72,10.64-36,0,0-.04-.03-.04-.03,1.65-.45,2.34-1.55,2.16-3.23.62-.25.84-.7.67-1.35,3.92-2.75,7.08-6.05,7.87-11.03,0,0,.06-.12.06-.12,4.55-2.4,7.01-6.42,8.6-11.11.53-.31.9-.76,1.07-1.36,3.65-1.69,5.77-4.58,6.65-8.45,3.13-3.64,6.26-7.29,9.38-10.93,15.04-9.66,23.9-25.65,37.56-36.72,3.65.35,6.09-1.47,7.86-4.45,6.02-.93,9.34-4.71,10.94-10.32l-1.06-.19s1.07.07,1.06.06c2.68.41,4.41-.68,5.17-3.3ZM641.67,1133.25c12.19-.45,20.4-3.35,23.19-17,2.86-13.98,7.75-27.69,15.25-40.32,5.33-8.99,9.39-18.75,13.65-28.34,1.94-4.37,4.1-10.12-.17-13.43-4.18-3.24-7.8,1.94-11.3,4.2-24.79,16.02-42.96,37.98-57.25,63.53-3.83,6.84-9.95,13.01-4.46,21.49,5.09,7.86,13.42,9.08,21.1,9.86ZM656.84,1039.64c22.96-4.02,58.08-36.6,59.29-53.96-24.62,7.26-35.88,31.16-55.34,45.03-2.53,1.8-3.78,4.73-3.96,8.93Z"/>
  <path class="st0" d="M2442.51,713.37c-2.27,4.05-3.68,8.34-3.78,13.01-1.9,1.37-2.21,3.22-1.65,5.35-5.91,16.04-12.97,31.55-21.25,46.51-3.37,1.75-5.11,4.65-5.82,8.26-19.26,22.44-38.03,45.33-60.16,65.12-4.27,2.02-8.25,4.4-10.67,8.7-22.69,17.42-45.38,34.84-68.08,52.27-14.6,7.59-26.56,19.43-41.8,25.98-16.29,8.19-32.87,15.85-47.99,26.19-1.57.71-3.14,1.42-4.71,2.13-22.8,10.11-45.6,20.22-68.4,30.33-5.77-.4-10.78,1.93-15.77,4.36-2.6.38-5.2.76-7.81,1.14-5.99-2.2-10.9-.77-14.68,4.41-8.53,3.39-17.07,6.79-25.6,10.18-14.65,1.81-20.39,11.04-20.72,24.81,0,0,.05.03.06.03-12.79,38.02-32.55,72.98-48.01,109.83,0,0-.05.29-.04.29-1.61.66-2.02,1.88-1.61,3.48-.61.35-.79.85-.54,1.51-6.72,12.24-15.95,23.2-19.02,37.29-3.98,6.07-9.83,11.07-10.85,18.84-1.94,1.14-2.32,2.94-2.09,4.99-4.2,4.55-4.14,10.74-6.22,16.11-5.69,7.84-6.98,20.85-21.52,18.26-.2-.58-.6-.82-1.21-.71-2.17-2.89-5.08-4.67-8.52-5.65.18-.61-.02-1.03-.62-1.25-.27-12.54,7.92-21.06,14.46-30.36,12.27-17.59,18.77-38.09,28.58-56.93,14.47-27.78,28.08-56.01,41.93-84.12,1.11-2.25,1.26-4.98,1.85-7.48,1.89-5.13,3.79-10.26,5.69-15.4,3.93-4.19,6.25-9.29,8.16-14.61.93-1.22,1.86-2.44,2.79-3.66,3.49-2.13,6.6-4.48,5.62-9.3-.1-6.01-3.85-7.76-9.09-7.77-4.05-1.8-8.11-3.6-12.17-5.39-3.13-3.54-6.32-7.01-11.18-8.19-1.5-1.64-2.99-3.29-4.49-4.93.2-1.97-.2-3.68-2.07-4.76-.2-5.09-.39-10.18-.59-15.27,2.62-2.99,2.44-6.62,2.31-10.23,8.63-19.83,21.64-36.92,33.99-54.43,5.31.11,5.58-4.69,7.62-7.79,6.8-10.37,15.32-18.94,28.64-28.06-4.69,7.26-7.31,11.23-9.83,15.27-1.48,2.37-5.52,4.36-2.8,7.62,2.36,2.83,6.09.78,8.51-.43,17.82-8.9,31.82-22.43,44.3-37.66,2.17-2.65,4.03-5.78,3.15-9.61.43-.92,1.49-2.3,1.2-2.69-1.26-1.73-2.46-.74-3.44.58-4.96,2.08-9.91,4.16-16.04,6.73,7.07-8.9,17.3-12.6,22.88-21.24,24.79-16.15,32.95-44.22,48.17-67.22,3.19-1.18,4.55-3.46,4.07-6.84,2.43-4.55,6.46-8.35,6.52-14.01,4.96-2.4,6.82-6.73,7.35-11.88,2.28-2.96,4.95-5.81,2.99-10.02,0,.01.06-.15.06-.15,5.49-.44,5.13-5,6.06-8.64,5.71-16.9,7.25-17.8,20.72-12.15,1.31,2.19,2.63,4.39,3.94,6.58-.35,4.35-.7,8.69-1.05,13.04-9.06,16.18-20.13,31.22-27.46,48.38-5.1,3.8-6.33,8.9-2.07,13.39,4.29,4.52,9.45,3.27,13.57-1.37,1.98-.69,3.96-1.38,5.94-2.07,3.78.46,6.92-.86,9.6-3.45,2.09-.54,4.18-1.07,6.27-1.61,3,.76,5.78.62,7.99-1.91,6.29-.29,12.31-1.75,18.12-4.13,2.18,1,4.05.66,5.56-1.26,11.13-2.3,15.75,7.5,23.02,12.38-.17,2.38-.35,4.77-.53,7.15-.73.75-1.46,1.49-2.19,2.24-1.66.84-3.31,1.68-4.97,2.52-3.46,1.14-6.92,2.28-10.38,3.42-2.02-.7-3.87-.59-5.4,1.1-1.73.46-3.47.92-5.2,1.38-4.91-.15-9.27,1.43-13.24,4.22-14.75,2.66-29.13,6.35-41.87,14.72-1.2.67-2.41,1.33-3.61,2-4.24,2.5-8.48,4.99-12.72,7.49-2.15-.02-3.97.57-4.95,2.7-20.06,6.08-27.37,23.37-35.26,40.13-2.14,1.26-2.39,3.17-1.81,5.36-2.91,5.24-5.81,10.47-8.72,15.71-2.1,1.28-2.38,3.18-1.81,5.36-14.31,22.59-24.84,47.13-36.52,71.06-1.91,3.92-3.77,8.39.44,12.02,3.82,3.29,8.18,1.88,12.42.45,14.15-4.81,26.23-13.81,39.83-19.71,40.89-17.74,81.32-37.13,118.8-60.7,48.59-30.55,97.23-62.15,135.44-106.41,3.79-1.95,7.02-4.4,7.77-8.98,15.27-15.62,28.22-32.83,36.6-53.18,2.79-1.79,3.12-4.52,2.82-7.48.55-.42.66-.93.31-1.54,3.62-3.28,4.92-7.35,4.15-12.13,5.85-21.26,4.85-41.26-11.38-58.11-3.27-3.4-7.37-6.15-12.56-6.16-3.98-2.96-8.22-5.06-13.4-4.08-35.37-4.04-70.43-1.68-105.29,5-.88.13-1.75.25-2.63.38-24.61,2.39-45.75,15.25-68.67,22.72-4.74-.5-8.76.94-11.98,4.5-21.91,7.98-44.5,14.34-64.26,27.37-4.34,1.32-9.19-1.18-13.3,1.79-13.5,2.52-24.11,10.37-34.47,18.69-3.11.1-5.32,1.6-6.74,4.33-3.88.81-6.91,2.85-9.08,6.18-3.81.28-6.64,2.17-8.75,5.27-5.89,3.45-11.78,6.91-17.67,10.36-3.71.52-6.53,2.41-8.61,5.49-24.68,11.61-44.91,29.37-65.1,47.18-3.6.7-6.61,2.25-8.24,5.76-27.84,18.96-53.33,40.61-75.8,65.76-3.78,1.32-5.34,4.28-5.88,7.99-10.5,11.68-19.06,24.53-24.24,39.5-5.56,16.06-2.6,29.79,10.63,40.91.86,3.81,1.72,7.62,2.57,11.43-.69-.16-1.08.12-1.15.82-21.73,1.13-27.56-2.37-35.39-21.29-3.65-19.18,3.25-36.33,10.31-53.44,3.03-2.22,4.94-5.06,5.04-8.93.89-1.45,1.78-2.9,2.67-4.35,3.29-2.01,4.86-5.05,5.27-8.79,3.57-3.4,7.2-6.76,8.55-11.77,2.69-1.3,4.72-3.15,5.08-6.33,40.33-38.54,77.93-80.18,125.37-110.66,5.03-.78,8.59-3.75,11.5-7.7,1.43-.93,2.87-1.87,4.3-2.8,3.93-.09,6.53-2.26,8.5-5.42,24.42-14.69,49.15-28.79,75.23-40.38,3.97,1.41,7.37.79,9.94-2.79,17.94-5.48,36.75-8.91,51.52-21.86,7.07-2.78,13.05-7.07,17.91-12.93,2.56-1.35,5.11-2.69,7.67-4.04,3.89.28,7.05-1.07,9.45-4.18,3.85-1.3,7.7-2.6,11.56-3.9,8.84-1.29,17.68-2.59,26.52-3.88,7.14-2.77,14.27-5.54,21.41-8.31,2.19.25,3.99-.28,4.95-2.48,2.63-1.07,5.26-2.15,7.9-3.22,2.2.44,4.05,0,5.24-2.1,8.72-2.07,17.44-4.13,26.16-6.2,2.97.97,5.77,1.06,8.06-1.54,1.72-.31,3.45-.63,5.17-.94,4.54.55,9.13,1.56,13.26-1.51,11.24-.08,22.49-.17,33.73-.26,4.72,3.52,10.26,1.84,15.44,2.45,2.36,2.06,5.17,2.81,8.23,2.83,1.34,2.05,3.21,2.37,5.4,1.66,4.08,2.2,8.36,3.66,13.06,3.55,6.1,1.53,12.2,3.06,18.3,4.6,10.79,9.3,20.3,19.77,28.4,31.5.17,2.77.12,5.61,2.57,7.61,1.23,4.31,2.46,8.63,3.69,12.94-1.17,3.51-1.24,7.02-.02,10.54-1.33,6.06-2.66,12.11-3.99,18.17-2.09,1.34-2.32,3.24-1.63,5.41ZM2062.49,894.37c-30.06,15.42-49.26,41.45-66.38,69.16-4.08,6.61-6.94,14.38.41,22.73,8.28,9.39,18.28,7.81,27.74,6.42,7.69-1.13,9.98-8.46,12.38-16.13,7.95-25.37,20.87-48.67,33.18-72.17,4.66-4.11,8.08-9.58,3.01-14.42-3.46-3.31-8.12-.16-10.33,4.41Z"/>
  <path class="st0" d="M2799.77,822.47c.61.23,1.05.04,1.31-.55,7.54-2.86,14.88-6.59,23.35-5.44,3.15,1.89,6.3,3.79,9.45,5.68,8.68,8.91,6.68,20.11,6.65,30.89-1.17,4.36-1.42,8.71.21,13.02,5.3,10.2,13.51,5.56,20.15,3,15.53-5.98,25.92-18.5,36.07-31.04,2.45-2.47,4.91-4.94,7.36-7.41,10.44-10.85,20.89-21.7,31.33-32.55,4.51-2.14,8.57-4.79,10.9-9.44,4.55-2.56,8.9-5.6,13.69-7.57,9.94-4.11,26.02.25,30.64,8.61,5.57,10.07,1.07,17.91-5.99,25.83-8.2,9.2-16.8,17.78-26.56,25.25-19.47,14.91-39.49,28.6-63.12,36.58-13.11,4.42-14.74,10.01-8.64,19.47.63,1.14,1.25,2.28,1.88,3.42,14.62,24.47,45.2,15.17,68.95-1.75.72.09,1.18-.21,1.38-.91,3.86.37,8-.03,11.5,1.3,4.54,1.73,8.49,5.28,8.33,10.67-.13,4.23-1.16,8.43-5.7,11.03-16.54,9.45-33.94,15.27-53.27,14.57-10.73-.39-20.9-.93-26.6-12.46-1.82-3.69-5.36-6.97-10.39-6.88-1.43-.96-2.86-1.92-4.3-2.88-6.5-8.62-12.99-17.24-19.49-25.86-7.07-3.08-14.18-3.47-21.33-.29-4.89.33-7.67,4.47-7.41,7.81.92,11.72-5.9,21.69-6.25,33.12-.22,7.3-2.49,14.61-6.64,20.94-4.2,6.4-9.35,4.43-14.84,1.65-5.34-2.71-8.63-5.86-5.65-12.28,10.57-22.75,12.23-47.96,19.65-71.6,1.87-5.96,4.24-14.23-3.08-17.67-7.35-3.45-13.06,1.76-16.68,8.51-.61-.15-1.01.07-1.2.68-4.72.6-7.23,3.54-8.37,7.92-.79.8-1.58,1.6-2.38,2.39-5.75,4.16-10.71,9.08-14.61,15.04-.59-.04-.95.23-1.07.81-5.64,1.42-9.04,5.38-11.65,10.26-1.99.27-3.44,1.23-4.05,3.23-5.48,1.47-7.2,7.21-11.48,10.09-7.39,4.97-14.79,4.23-21.88-.23-6.82-4.29-4.62-10.21-2.2-16.08,3.34-8.12,4.52-16.71,4.9-25.4.17-4.01-.38-8.21-4.88-9.63-3.97-1.25-7.79-.6-9.59,4.05,0,0-.01-.02-.01-.02-3.15.33-5.2,1.99-6.07,5.06-5.84,3.47-10.88,7.82-14.79,13.41-12.48,10.48-26.68,19.27-34.2,34.65-1.07,1.32-2.14,2.65-3.21,3.98-7.19,2.78-9.24,14.51-19.82,11.37-1.05-1.56-2.09-3.11-3.14-4.67-3.03-8.63-.98-16.48,2.62-24.62,3.24-7.33,8.81-13.93,8.45-22.64.62-.22.82-.63.58-1.25,10.75-13.12,13.16-29.99,20.02-44.86,2.13-4.61,1.79-11.48,8.63-11.43,6.71.04,8.94,5.8,10.56,11.58,4.47,16.03,7.03,16.73,20.21,5.41,3.24-2.78,7.91-4.09,9.41-8.75.66.18,1.11-.06,1.35-.7,7.6-2.92,15.44-3.58,23.46-2.42,3.41,3.48,6.82,6.95,10.23,10.42.01,3.68.15,7.33,2.72,10.34.15,1.72.31,3.44.46,5.16.14,11.76,7.85,10.76,13.92,6.5,9.79-6.88,19.44-14.33,26.86-24.05,3.27-.62,4.79-3.36,6.75-5.58,3.34,0,5.34-1.85,6.57-4.77ZM2910.66,845.08c7.93-1.38,17.18-.94,23-8.96,2.02-2.78,7.78-4.81,3.45-9.36-3.28-3.45-7.59-1.81-10.5,1.08-5.78,5.76-11.12,11.96-15.96,17.24Z"/>
  <path class="st0" d="M3274.06,889.12c1.18-.47,2.35-.93,3.53-1.4,9.19-3.05,19.09,6.92,27.99-1.52,1.16-.5,2.31-.99,3.47-1.49,8.03-4.02,18.52-3.75,23.37-13.34.64-1.09,1.27-2.18,1.9-3.28,5.41-8.32,6.52-16.54-.52-24.59-1-1.35-2-2.7-2.99-4.05-4.6-11.95.26-25.23-5.48-37.18-1.99-4.14,1.64-8.15,3.52-12.14,9.86-20.85,29.57-30.21,47.81-41.07,12.47-7.43,28.56-2.84,35.63,8.92,2.41,4.01,3.43,8.23,1.12,12.45-2.06,3.76-5.56,5.66-9.95,4.68-12.66-2.84-24.34,1.62-36,5.09-23.84,7.11-27.09,15.02-16.84,38.71.22,1.7.44,3.41.67,5.11.32,11.85,1.96,23.56,5.19,34.93,2.99,10.54.72,19.96-4.78,28.83-9.16,14.77-23.69,20.09-39.68,25.38-28.81,9.53-61.08-3.25-88.17,14.95-1.54,1.03-4.29.27-6.47.34-1.04-1.46-2.09-2.92-3.13-4.38,1.85-16.22,10.72-29.81,16.65-44.51,2.21-5.47,5.66-12.58-.69-16.48-6.09-3.73-11.12,1.24-14.54,6.72,0,0-.44.42-.43.42-13.55,16.16-27.6,31.66-44.4,44.76-18.43,14.37-36.66,26.87-61.42,16.53,0,0-.07-.03-.07-.03-4.25-10.64-5.15-20.59,2.75-30.57,4.49-5.69,7.42-12.68,8.33-20.4,1.01-8.49,5.21-17.43,11.58-21.36,11.03-6.8,16.39-17.82,24.93-26.28,19.9-19.7,35.8-44.28,64.94-52.83,4.48-1.31,7.85-5.49,8.7-10.73,14.33-7.69,27.67-12.68,36.98,7.47,2.23,4.82,11.04,6.91,6.82,14.57-4.31,7.83-11.04,4.66-17.29,2.71-5.07-1.58-10.72-3.18-15.26-.22-11.55,7.52-24.41,13.42-33.16,24.72-.9.72-1.8,1.43-2.7,2.15-3.24.28-5.21,2.12-6.28,5.08-1.35,1.05-2.71,2.11-4.06,3.16-15.28,9.42-28.05,21.35-37.02,37.07-.6.16-.84.54-.72,1.15-5.46,2.73-7.66,8.26-10.79,12.91-2.57,3.82-3.63,9.21-.79,12.32,3.14,3.44,8.52,1.03,11.89-1.26,10.86-7.38,20.7-16,28.19-26.98,5.58-3.82,11.26-7.52,14.92-13.47,6.02-1.52,10.17-5.37,13.21-10.6,0,0,0,.02,0,.02,4.55-.6,7.03-3.63,8.79-7.5,6.7-6.24,13.39-12.47,20.09-18.71,8.63-2.57,16.17,2.21,24.11,3.88,6.75,1.42,8.72,7.02,6.89,13.32-4.11,14.11-5.95,29.01-16.27,40.87-4.26,4.89-7.9,12.72-3,17.93,4.93,5.23,12.79,3.99,18.99-.79Z"/>
  <path class="st0" d="M1189.88,1198.02c.62-.19.86-.6.71-1.23,9.96-12.74,20.51-25.11,25.75-40.83.97-1.44,1.94-2.87,2.91-4.31,9.01-8.52,15.44-18.77,20.27-30.1.69-.23.97-.7.84-1.42,11.7-16.67,23.94-33,34.87-50.16,4.74-7.44,3.1-14.18-8.02-15.24-9.01-.86-18.12-2.3-24.84-9.52-1.71-1.81-3.42-3.63-5.12-5.44-7.08-23.77,1.38-46.47,5.02-69.45.94-5.94,5.76-7.35,11.14-4.57,11.33,5.84,15.07,16.71,9.63,28.45-3.01,6.49-4.59,13.25-4.49,20.3.16,11.1,6.47,15.28,16.32,10.38,12.57-6.25,22.86-15.56,31.98-26.16.7.06,1.11-.26,1.23-.95,18.52-12.42,32.76-29.14,44.1-47.85,4.4-7.26,8.24-10.27,16-9.23,1.71,1.62,3.42,3.24,5.14,4.86,6.01,13.82,2.81,25.02-9.06,34.29-4.81,3.75-8.04,8.97-8.56,15.4-.7.27-.99.77-.85,1.52-4.79,2.33-6.85,6.46-7.62,11.46-.99,1.44-1.98,2.87-2.97,4.31-3.95,2.89-6.94,6.41-7.56,11.48-1.01,1.41-2.02,2.82-3.03,4.23-3.86,2.97-6.98,6.43-7.44,11.59-1.76,2.52-3.51,5.05-5.27,7.57-4.09,2.57-7.24,5.81-7.76,10.91-.94,1.6-1.87,3.2-2.81,4.8-3.58,1.62-5.11,4.53-5.2,8.33-1.03,1.41-2.05,2.83-3.08,4.24-4.38,3.99-8.69,8.03-9.64,14.33-.69.23-.98.7-.88,1.42-4.47,2.58-6.99,6.44-7.53,11.58-.99,1.44-1.99,2.88-2.98,4.31-3.22,1.96-4.98,4.82-5.26,8.58-2.63,1.78-4.49,4.11-5.27,7.23-3.88,2.9-6.48,6.63-7.5,11.41-1.03,1.75-2.06,3.5-3.08,5.26-7.52,7.74-13.48,16.49-17.38,26.6-.71.22-1.04.71-.96,1.46-7.3,6.88-13.46,14.47-15.55,24.63-1.04,1.34-2.09,2.68-3.13,4.03-13.73,14.99-25.19,31.37-31.12,51.11,0,0,.05-.04.05-.03-1.74,1.91-3.73,3.66-5.17,5.77-5.35,7.86-12.51,12.84-20.66,5.74-7.81-6.81-9.54-15.66.64-23.25,2.78-2.08,5.11-4.9,4.56-8.93.64-.31.85-.8.63-1.48,5.37-3.35,8.37-8.31,9.77-14.36.68-.28.93-.77.73-1.48,4.98-2.25,7.39-6.17,7.49-11.58Z"/>
  <path class="st0" d="M1101.28,1074.87c5.02-2.6,8.49-6.87,12.04-11.07,12.73-7.33,22.71-17.72,32.09-28.77,4.29-1.55,7-5.05,10.01-8.17,9.56-4.44,16.68-11.59,22.5-20.19.65.09,1.05-.18,1.21-.81,8.29-3.86,16.96.23,25.51-1.15,4.83-.78,7.21,4.15,8.22,8.75,1.28,5.85-.95,11.12-2.29,16.67-5.87,24.27-23.99,42.82-30.63,66.9-1.97,7.14-7.08,14.89-14.8,19.2-3.4,1.9-6.57,2.31-9.83.07-3.25-2.23-2.27-5.1-1.34-8.19,3.15-10.42,6.07-20.9,9.08-31.35.61-1.1,1.23-2.21,1.84-3.32,2.94-1.69,3.43-4.86,4.5-7.65,1.71-4.47,4.39-10.09-.51-13.05-5.57-3.36-10.6-.27-13.37,5.69-2.99,1.3-5.09,3.43-6.16,6.54-16.05,20.2-33.31,38.34-57.58,49.77-15.1,7.11-28.37,13.27-44.1,4,0,0-.02-.02-.02-.02-1.22-20.12-.07-38.05,15.24-55.27,14.4-16.2,27.44-34.32,39.95-52.42,1.98-2.2,3.96-4.41,5.93-6.61,4.35-1.26,7.14-4.1,8.49-8.4,2.04-.2,3.42-1.23,4.06-3.2,14.7-10.65,29.43-21.21,46.94-27.03,1.94-.64,4.11-2.13,5.09-3.84,5.58-9.7,14.04-10.64,23.72-8.42,0,0-.04-.03-.04-.03-.84,8.13,3.19,12.83,10.27,16.3,5.81,2.86,7.91,8.63,5.15,14.44-2.92,6.15-8.32,2.72-12.64,1.37-8.86-2.77-17.64-6.22-25.26,2.56-1.14.54-2.28,1.07-3.42,1.61-7.88,3.33-14.59,8.16-19.55,15.23-1.4,1.03-2.79,2.05-4.19,3.08-8.36,2.75-13.61,9.25-18.91,15.69-11.66,7.35-21.53,16.55-29.04,28.17-3.14.9-4.55,3.13-4.79,6.25,0,0,0,0,0,0-3.98.91-5.05,4.53-6.66,7.48-2.99,5.5-10.01,12.97-4.63,17.07,6.16,4.69,13.33-1.69,17.92-7.88Z"/>
  <path class="st0" d="M2443.98,848.44c.71.19,1.2-.06,1.47-.74,12.81-6.46,25.92-12.39,38.35-19.51,16.27-9.33,32.05-4.6,38.78,12.53,1.54,3.91,1.81,7.59-1.04,11.11-3.19,3.95-6.42,2.86-10.43,1.05-8.57-3.86-17.75-6.57-26.23-.41-32.19,23.4-65.56,45.59-87.86,79.87-3.29,5.06-8.13,11.44-2.55,16.4,5.09,4.53,10.81-.95,14.95-4.54,24.17-20.9,48.31-41.83,72.02-63.25,11.89-10.74,27.03-13.59,42.39-6.4,0,0,0,.07,0,.07-.33,3.45-.02,7.12-1.1,10.32-10.21,30.16-23.87,58.84-38.01,87.31-2.9,5.84-6.07,11.86-13.51,8.88-7.22-2.89-5.6-10.16-4.49-16.07.79-4.23,3.02-8.17,4.44-12.29,2.96-8.59,8.69-16.11,8.98-25.78.22-7.41-3.03-10.66-9.2-7.01-9.97,5.9-18.99,13.33-22.58,25.25-.72.16-1.05.6-.98,1.34-18.99,16.39-36.03,35.58-60.89,43.67-10.43,3.39-21.75,4.03-29.26-4.88-7.36-8.72-3.87-19.39,1.24-28.41,10.34-18.26,21.24-36.17,34.02-52.93,15.4-20.21,33.71-37.65,51.52-55.58Z"/>
  <path class="st0" d="M1516.16,944.91c.86.98,1.71,1.95,2.57,2.93,3.7,15.63,1.6,17.75-14.4,14.1-7.45-1.7-14.51-1.8-21.38,2.32-11.55,6.94-22.24,14.89-31.3,24.92-.69-.17-1.16.08-1.41.75-8.07,3.03-14.06,8.71-19.38,15.24-4.25,4.26-8.49,8.53-12.74,12.79-9.9,4.99-14.46,14.95-20.71,23.14-4.02,5.27-9.68,13.45-3.16,18.71,5.66,4.56,12.13-2.66,16.88-6.8,25.05-21.84,50.65-43.15,74.29-66.44,11.41-11.24,20.64-3.4,29.62-.29,9.33,3.23,4.81,12.75,2.87,19.62-7.46,26.46-24.55,49.23-29.7,76.67-.49,2.64-3.27,5.26-5.62,7.05-5.6,4.25-12.13,9.45-18.67,3.06-5.73-5.61-3.29-12.26.32-19.12,5.47-10.38,9.53-21.52,13.96-32.43,1.14-2.81,1.81-6.27-.96-8.56-3.09-2.55-7.29-2.13-9.74.26-9.17,8.95-21.51,15.67-22.94,30.47,0,0,.1-.06.1-.06-1.67.15-2.58,1.07-2.74,2.74,0,0,.06-.1.06-.09-16.75,10.17-33.41,20.49-50.28,30.44-9.75,5.75-20.69,7-29.75.07-8.42-6.45-6.08-16.52-3.42-25.57.98-3.32,2.38-6.52,3.64-9.75,6.74-17.24,20.09-30.59,27.82-47.26,1.94-.65,2.96-2.03,3.2-4.03,16.79-16.91,33.58-33.81,50.37-50.72.69.19,1.17-.05,1.42-.72,11.61-5.8,23.67-10.89,34.72-17.61,11.76-7.16,22.26-12.85,31.67,2.77.63,1.05,3.13.97,4.75,1.41Z"/>
  <path class="st0" d="M2629.63,755.56c-1.4,5.59-2.8,11.19-4.19,16.79-.46,1.42-.92,2.83-1.39,4.24-4.83,11.91-8.75,24.11-11.47,36.68-2.02,1.34-2.3,3.22-1.66,5.38-3.22,4.77-4.57,10.23-5.83,15.73-2.1,1.32-2.49,3.2-1.78,5.44-2.16,6.07-4.32,12.14-6.49,18.21-1.82,1.23-2.3,3.02-2.11,5.09-1.1,2.69-2.21,5.38-3.31,8.08-1.77,1.32-2.11,3.1-1.67,5.14,0,0,.09-.06.09-.05-1.66.41-2.27,1.45-1.85,3.11-.61,1.66-1.22,3.31-1.82,4.97-3.88,5.31-6.83,11.02-7.43,17.71,0,0-.01.16,0,.17-1.66.53-2.18,1.74-1.98,3.37-1.06,2.22-2.11,4.44-3.17,6.66-3.21,3.08-4.45,7.12-5.47,11.27-.86,1.44-1.71,2.89-2.57,4.33-6.98-.07-13.77.18-15.14,9.28-3.23,3.84-5.79,8.01-6.42,13.12-4.14,10.32-6.29,21.5-12.5,30.92-2.98,4.52-5.54,10.87-12.13,10.38-7.43-.56-2.99-8.99-6.74-12.39.1-1.58.19-3.17.28-4.75,3.26-4.3,6.52-8.6,9.78-12.9,11.39-21.68,22.78-43.37,34.16-65.06,4.31-3.87,7.56-8.25,7.02-14.47,1.2-3.44,2.4-6.87,3.61-10.31,2.13-1.2,2.69-3.03,2.16-5.31,1.26-3.48,2.52-6.96,3.78-10.44,1.9-1.4,2.13-3.26,1.49-5.36,1.02-2.62,2.05-5.25,3.07-7.87,2.6-2.14,2.77-4.94,2.14-7.95,2.66-2.96,3.84-6.47,3.79-10.42,1.81-1.42,2.05-3.28,1.48-5.37,2.1-2.19,3.33-4.74,3.2-7.85,1.94-1.38,2.31-3.26,1.74-5.44,3.06-8.7,6.12-17.41,9.18-26.11,2.39-2.06,2.69-4.75,2.32-7.64,2.41-3.2,3.03-6.9,3.01-10.78,1.98-1.38,2.25-3.25,1.53-5.41,2.45-3.03,3.71-6.48,3.74-10.38,2.06-1.32,2.31-3.2,1.67-5.36,1.22-3.48,2.43-6.96,3.64-10.43,2.03-1.35,2.29-3.23,1.58-5.39,1.21-3.47,2.43-6.94,3.64-10.41,2.05-1.36,2.43-3.21,1.57-5.41,1.15-5.23,2.29-10.46,3.44-15.69,2.74-3.13,2.84-6.76,1.98-10.57,2.28-4.07,3.46-8.44,3.61-13.09,2.59-2.24,2.6-5.01,1.65-7.98,1.84-5.09,3.87-10.13,3.46-15.72,2.05-1.35,2.41-3.21,1.64-5.41,1.08-4.36,2.17-8.72,3.25-13.08,3.32-9.05,6.02-19.31.52-27.15-6.52-9.28-4.37-16.57-.04-24.83.6.3,1.06.15,1.36-.46,8.68.29,14.4,5.83,20.11,11.38-.17.65.04,1.11.65,1.39.7,1.26,1.4,2.52,2.1,3.78-.31.62-.19,1.14.36,1.57.06,10.48.12,20.96.18,31.44-.47,1.7-.95,3.39-1.42,5.09-3.14,12.3-6.29,24.6-9.43,36.89-2.66,3-3.64,6.54-3.3,10.49-2.02,1.4-2.34,3.28-1.55,5.47-.41,1.68-.82,3.36-1.22,5.04-2.1,1.31-2.44,3.18-1.73,5.39-2.26,4.06-3.59,8.38-3.59,13.07-3.03,3.94-4.23,8.44-3.99,13.36-1.17,4.33-2.35,8.66-3.52,12.99-1.99,1.36-2.34,3.25-1.75,5.44-1.19,4.33-2.37,8.65-3.56,12.98-2.03,1.35-2.45,3.21-1.75,5.44Z"/>
  <path class="st0" d="M3024.56,927c-.76,1.03-1.52,2.06-2.27,3.08-12.36,2.18-20.39-8.7-15.8-22.08,6.49-18.93,13.81-37.58,20.12-56.57,6.4-19.25,16.44-37.87,11.99-59.35.85-.17,1.34-.69,1.45-1.55,3.76.37,7.52.73,11.28,1.09,0,0,.4.51.4.51,1.94,6.95,6.15,12.92,5.98,20.91-.19,9.35,5.37,10.04,13.39,6.4,16.19-7.33,32.89-13.55,49.23-20.57,8.44-3.62,13.24,1.78,18.07,6.69,4.2,4.28,3.77,9.75,1.1,14.66-3.56,6.55-9.07,6.22-15.84,4.94-12.93-2.45-25.64-.83-35.11,9.5-7.69,8.39-16.19,15.22-25.82,21.43-10.97,7.07-19.37,17.38-21.11,31.4-.61,1.3-1.22,2.59-1.83,3.89-9.1,10.15-15.07,21.63-15.22,35.6Z"/>
  <path class="st0" d="M2182.19,1616.46c1.67.39,3.35.78,5.02,1.16,16.14,5.53,30.08,13.31,37.64,30.09,9.37,20.8,3.07,39.21-6.62,57.51,0,0,.03.05.04.05-.82.97-1.65,1.94-2.48,2.9,0,0,.1-.1.1-.1-.92.89-1.85,1.78-2.78,2.66l.66.15s-.64-.22-.64-.22c-1.56.71-3.26,1.23-4.67,2.17-19.5,12.95-40.16,13.72-59.21,1.22-19.33-12.69-25.73-32.78-21.49-55.34,4.16-22.16,18.25-35.12,40.33-39.45,4.7-.92,9.4-1.86,14.1-2.8ZM2215.23,1670.16c.23-24.72-14.6-40.66-37.92-40.74-21.09-.07-37.03,17.37-37.17,40.67-.14,23.95,14.83,40.44,36.87,40.6,23.27.17,37.98-15.44,38.22-40.53Z"/>
  <path class="st0" d="M1727.97,1659.37c4.27-5.64,7.55-11.73,8.48-18.87,4.24-5.15,1.06-12.16,4.39-17.54,0,0,.18-.17.18-.17,11.72-5.78,17.6-.31,21.38,10.56,6.26,18.03,13.56,35.73,19.28,53.92,3.47,11.03,10.86,21,9.75,33.36l.61.77s-.71-.67-.71-.67c-13.36,2.95-13.45-10.46-19.85-16.09-.24-.52-.61-.92-1.13-1.17-8.7-11.37-20.16-2.15-30.17-3.96-8.89-1.6-15.21,2.42-17.97,11.05-1.88,5.9-5.49,9.62-11.31,11.36-1.19-.38-2.38-.76-3.57-1.14-1.83-8.67,4.44-15.71,4.8-23.95,0,0,.12-.57.12-.58,5.24-12.3,10.48-24.59,15.73-36.89ZM1745.58,1690c4.36-4.78,17.5,3.54,18.3-6.5.91-11.42.48-24.51-7.33-34.82-4.03-5.32-9.46-7.25-13.4.03-4.96,9.17-8.72,18.97-10.12,29.38-1.06,7.82,1.96,12.75,12.55,11.9Z"/>
  <path class="st0" d="M1647.08,1618.11s1.03-.27,1.03-.27c7.2,1.53,9.72,6.47,9.71,13.29-.04,26.13-.18,52.26-.02,78.39.05,8.32-3.66,11.97-11.79,11.46l-.69.63s.62-.71.62-.7c-.17-3.04-.14-6.12-.55-9.13-1.66-12.19,5.85-28.95-4.35-35.53-9.07-5.84-24.61-1.23-37.23-2.11-9.01-.63-11.3,3.56-11.32,11.42-.03,11.78-.57,23.56-.89,35.34l.55.64s-.64-.55-.64-.55c-5.21-.21-11.73.61-11.8-6.98-.29-28.94-.16-57.89.03-86.83.02-3.71,2.17-7.02,6.3-7.27,5.49-.33,6.25,4.14,6.41,8.09.34,8.32.45,16.66.22,24.98-.2,7.38,1.93,11.49,10.38,11.07,10.94-.54,21.94-.52,32.89-.1,6.97.27,8.93-2.67,9.26-9.18.64-12.22-1.55-24.6,1.87-36.67Z"/>
  <path class="st0" d="M1443.21,1707.26c-.69-.69-1.38-1.38-2.06-2.06-3.79-8.54-7.58-17.09-11.37-25.64-.18-5.22-.37-10.44-.55-15.66,2.08-6.67,4.15-13.34,6.23-20,0,0,.13-.29.12-.29,2.47-3.01,4.89-6.06,7.44-9,22.4-25.83,64.99-17.69,78.05.97,2.04,2.91,6.36,6.25,1.71,10.06-3.63,2.97-7.31,1.22-10.62-1.6-4.31-3.68-8.36-8.02-13.31-10.53-28.59-14.52-57.89,5.41-54.79,42.08,1.27,15.03,6.96,26.49,20.74,32.22,14.1,5.86,27.99,5.39,40.58-5.38,4.65-3.97,10.28-14.89,16.39-6.93,5.98,7.79-4.91,13.14-10.63,17.82-3.28,2.68-7.66,4.18-11.75,5.67-21.11,7.7-39.38,1.42-56.18-11.73Z"/>
  <path class="st0" d="M1318.73,1618.68c.28.79.83,1.12,1.65.99.46,5.32-.67,10.31-2.58,15.28-9.53,24.79-18.92,49.63-28.38,74.44-1.99,5.22-3.12,11.59-10.46,11.67-7.36.08-10.41-5.57-12.7-11.37-7.52-19.03-15.01-38.07-22.2-57.23-3.93-10.46-10.28-20.34-8.82-32.3l-.41-.78s.51.72.51.72c6.83-1.77,10.36,1.39,12.57,7.68,6.37,18.1,13.04,36.09,19.64,54.1,2.93,7.99,5.42,16.3,11.69,21.21,9.76-25.97,19.33-51.62,29.11-77.2,1.71-4.47,6.24-5.79,10.39-7.22Z"/>
  <path class="st0" d="M2045.36,1650.78c1.79-5.75,2.75-11.45-1.26-16.77-4.3-8.6-12.11-4.4-18.58-5.11-3.57-.39-7.4-1.03-7.39-5.6.01-3.43,3.47-4.05,5.84-3.59,19.84,3.83,39.73-2.62,59.55.49l1.03-.26s-1,.37-1,.36c-1.22,6.04-4.92,8.6-11.08,8.92-17.16.89-18.35,2.98-17.22,20.89,1.49,23.62,1.37,47.29-.15,70.92,0,0-.1.09-.1.09-3.06.06-6.13.13-9.2.19,0,0-.07-.06-.07-.06-2.13-23.48-.21-46.99-.39-70.49Z"/>
  <path class="st0" d="M1970.39,1639.71c-.04,2.99-.09,5.98-.12,8.97-1.26,14.57-1.31,29.15.13,43.72.02,5.57.05,11.14.08,16.7-.57,6.17-3.26,10.78-9.47,12.77-1.61-.95-3.21-1.9-4.82-2.85-.07-28.68-.06-57.35-.26-86.03-.06-8.58,1.5-15,12.35-12.66.51.83,1.02,1.66,1.54,2.48.2,5.63.39,11.26.58,16.89Z"/>
  <path class="st0" d="M1373.24,1618.32c2.55.45,5.11.9,7.66,1.35,1.82,33.81,1.41,67.62.22,101.44l.56.72s-.6-.69-.6-.69c-10.53,1.41-12.46-4.8-12.37-13.44.26-24.89.41-49.78.24-74.67-.04-5.54,1.51-10.2,4.29-14.72Z"/>
  <path class="st0" d="M1866.31,1424.42c.33-.69.66-1.39.99-2.08,1.6,1.83.38,1.97-1.15,1.92,0,0,.16.16.16.16Z"/>
  <path class="st0" d="M1918.74,92.58c1.28-7.46,6.35-11.19,10.23-18.42.34,11.81-.03,12.43-10.23,18.42Z"/>
  <path class="st0" d="M1844.88,207.74c-.91.82-1.73,1.68-2.7,2.3-.17.11-1-.83-1.52-1.29.78-.89,1.53-1.8,2.4-2.59.06-.05.98.85,1.81,1.58Z"/>
  <path class="st0" d="M1771.35,265.79c.22,2.12.34,4.34-2.29,4.91-.68.15-2.41-1.12-2.4-1.71.05-3.37,2.03-4.09,4.96-2.97l-.26-.24Z"/>
  <path class="st0" d="M1771.61,266.03c-.77-1.62-.48-3,.92-4.14.5,1.37,1,2.73,1.5,4.1,0,0,.2-.21.2-.21-.96,0-1.92.01-2.88.02,0,0,.26.24.26.24Z"/>
  <path class="st0" d="M1766.28,279.15c-.94,0-1.87.02-2.81.03-.54-1.54-.96-3.81.75-4.06,3.22-.47,1.51,2.56,2.06,4.03Z"/>
  <path class="st0" d="M1763.68,278.97c-.18,1.73-.9,2.92-2.86,2.85-.15-2.06.8-3.02,2.86-2.85Z"/>
  <path class="st0" d="M1768.92,255.5c.4-.46.79-.92,1.19-1.38-.06.3-.02.76-.19.87-.34.21-.8.22-1.21.31,0,0,.21.2.21.2Z"/>
  <path class="st0" d="M1721.49,166.02c.48-1.01.96-2.03,1.44-3.04,2.24,2.49-1.76,1.54-1.59,2.89,0,0,.15.15.15.15Z"/>
  <path class="st0" d="M1598.9,185.9c.17-1.7.56-3.91,2.72-2.66,1.59.92,1.01,3.01-.67,4.22-.66-.55-1.34-1.07-2.04-1.56Z"/>
  <path class="st0" d="M1652.29,1504.44c-6.75,2.07-11.75,3.42-16.6,5.17-2.23.81-4.28,1.62-5.26-1.14-.93-2.61,1.26-3.74,3.19-4.84,5.69-3.25,11.28-3.66,18.67.81Z"/>
  <path class="st0" d="M1708.24,1534.86c-.49,2.07-1.93,2.3-3.64,1.78-.29-.09-.43-.67-.64-1.03,1.47-.2,2.93-.4,4.4-.6,0,0-.11-.15-.11-.15Z"/>
  <path class="st0" d="M1779.45,389.58c-3.18-1.79-6.35-3.59-9.53-5.38,4.78-.54,9.22-.47,9.29,5.59,0,0,.24-.21.24-.21Z"/>
  <path class="st0" d="M1835.35,478.46c1.78.48,2.78,1.53,2.43,3.46-.06.32-.54.78-.86.81-1.97.17-2.8-1.01-3.04-2.78.48-.5.98-.99,1.48-1.48Z"/>
  <path class="st0" d="M1845.17,423.83c.34.26.68.52,1.01.79-.28-.31-.56-.62-.84-.94,0,0-.17.15-.17.15Z"/>
  <path class="st0" d="M1833.88,479.94c-.67-.84-2.03-2.28-1.89-2.44,1.65-1.94,2.54-.48,3.37.97-.49.48-.99.97-1.47,1.47Z"/>
  <path class="st0" d="M1795.17,389.63c-1.89.1-2.6-.93-2.55-2.68l-.21.2c1.88-.2,2.76.66,2.72,2.53,0,0,.04-.04.04-.04Z"/>
  <path class="st0" d="M1792.62,386.94c-.6-.32-1.2-.63-1.8-.95,1.8-1.37,1.46.22,1.59,1.15,0,0,.21-.2.21-.2Z"/>
  <path class="st0" d="M1875.6,1720.68c-2.71-.04-5.41-.09-8.12-.13-.07-.43-.25-.87-.21-1.29,3.3-32.46-13.28-58.42-27.42-85.3-2-3.81-8.2-9.75-1.19-13.33,6.75-3.44,9.92,3.52,12.17,8.6,3.68,8.31,9.03,15.88,10.6,25.18.8,4.73,3,8.73,8.91,9.84,6.54,1.22,8.16-3.02,10.17-7.34,2.78-10.04,7.53-19.22,12.43-28.32,2.98-5.53,6.79-10.12,13.81-10.32,2.08,5.47-.17,10.18-2.6,14.85-3.81,7.31-6.92,15.1-11.55,21.85-13.66,19.95-16.44,42.49-17.01,65.71Z"/>
  <path class="st0" d="M1987.17,471.44c3.51-1.14,5.36,1.65,8.94,4.06-4.87.5-7.2-1.07-8.78-4.27,0,0-.16.21-.16.21Z"/>
  <path class="st0" d="M1984.62,455.53c-.85-.92-1.7-1.84-2.55-2.76,0,0-.17.17-.17.17.86.87,1.73,1.75,2.59,2.62l.12-.03Z"/>
  <path class="st0" d="M1984.49,455.56l.46.15s-.34-.2-.34-.19c0,0-.12.04-.12.04Z"/>
  <g>
    <path class="st0" d="M1987.33,471.24s-.09-.03-.14-.04c0,.08,0,.16-.02.24l.16-.2Z"/>
    <path class="st0" d="M1845.34,423.68c-.12-.03-.25-.05-.37-.07.06.08.13.15.19.23l.18-.15Z"/>
    <path class="st0" d="M1866.15,1424.25c0,.05-.01.11-.02.17.06,0,.12,0,.18,0l-.16-.16Z"/>
    <path class="st0" d="M1708.35,1535.02c.05-.08.1-.16.15-.24-.09.03-.18.06-.27.09l.11.15Z"/>
    <path class="st0" d="M1779.21,389.78c.1-.03.2-.05.3-.08-.02-.04-.04-.08-.06-.12l-.24.21Z"/>
    <path class="st0" d="M1982.07,452.77s-.08-.03-.11-.04c-.02.07-.03.14-.05.21,0,0,.17-.17.17-.17Z"/>
    <path class="st0" d="M2021,519.03s0,.09,0,.14c.04,0,.08.02.12.03,0,0-.13-.16-.13-.16Z"/>
    <path class="st0" d="M1392.88,589.23c.16-.35.26-.68.33-.99-.15.24-.29.49-.45.73,0,0,.12.26.12.26Z"/>
    <path class="st0" d="M1774.02,265.98c.06-.05.13-.11.19-.16,0-.02,0-.04,0-.06,0,0-.2.21-.2.21Z"/>
    <path class="st0" d="M1731.08,193.04c.01.22.03.44.05.66.05-.1.1-.21.16-.3,0,0-.21-.36-.2-.36Z"/>
    <path class="st0" d="M1768.71,255.29c-.06.02-.11.05-.17.07.13.04.25.09.38.13l-.21-.2Z"/>
    <path class="st0" d="M1721.34,165.87s0,.01,0,.02c.05.04.1.09.15.13l-.15-.15Z"/>
    <path class="st0" d="M1494.73,333.78s-.03,0-.04,0c-.03.02-.06.05-.09.07,0,0,.13-.07.13-.06Z"/>
    <path class="st0" d="M2120.15,327.81c-13.34-10.31-27.54-19.51-41.4-29.15,0,0-.38-.12-.38-.12-21.42-8.43-42.77-17.03-64.94-23.36-1.72-.33-3.43-.66-5.15-.99-9.69-1.44-19.39-2.88-29.08-4.32-18.27-.09-36.54-.17-54.81-.26-9.37,3.66-19.22,4.19-29.11,4.51-1.71.24-3.42.48-5.13.71-5.9,2.65-11.85,5.11-18.53,4.62-1.71.44-3.43.89-5.14,1.33-3.92,3.13-8.47,4.01-13.34,3.78-1.68.49-3.35.97-5.03,1.46-10.31,6.1-20.92,11.21-33.41,10.12-1.63,1.78-4.05,2.99-5.61,1.06-2.23-2.76,1.08-3.17,2.7-4.12,3.6-5.27,7.43-10.4,10.73-15.85,1.87-3.1-2.41-.31-2.42-2-1.27,1.28-2.68,1.91-3.98.23-.14-.19,1.27-1.58,1.97-2.41,30.12-8.28,51.25-31.94,78.11-45.8,2.3-1.19,4.21-3.22,7.14-2.22.85-.4,1.7-.8,2.55-1.21,13.55-13.33,29.83-11.36,46.33-8.34,1.24.23,2.57.02,3.84-.1.38-.04.73-.45,2.49-1.64-7.98-7.86-12.2-20.17-27.76-13.94-8.33,3.34-16.93-1.83-25.45-2.38-10.56-.67-17.99,2.04-25.75,7.55-1.23.88-3.26.63-4.92.91-.54.54-1.48,1.59-1.55,1.54-1.69-1.35-.65-1.9.76-2.3-5.15-1.96-7.2,2.73-9.52,5.23-8.61,9.26-19.59,13.87-31.42,18.06-1.03-6.48,8.43-8.34,4.69-17.46-15.31,26.48-42.12,37.29-63.42,54.88-.39,5.81-2.88,10.32-8.13,13.13.15,4.39-1.12,8.08-5.05,10.46,0-2.61-.02-5.22-.02-7.83-14.58-2.87-18.67,12.42-29.93,16.14,15.14-11.91,17.9-34.3,37.45-42.36-15.63-5.24-17.23-9.06-8.22-19.3,2.11-5.74,6.04-9.73,11.65-12.09,19.12-17.88,35.4-39.3,62.14-47.49,6.42-1.97,11.96-6.95,17.77-10.74,2.76-1.8,6.06-3.13,2.61-7.91-2.91-4.03,1.98-3.84,4.28-4.97,19.48-9.51,38.89-19.17,60.61-22.69.19-.03.28-.7.52-1.35-2.71-4.64-8.21-.79-13-4.77,15.37-5.37,28.72-13.18,44.74-14.5,9.59-.79,22.31-1.01,12.29-16.99-.87-1.39.27-4.03.48-6.2-12.15,2.82-22.26,8.74-31.79,16.09-5.15,3.97-8.37-6.27-13.93-2.85-.93-12.78-6.23-.49-9.23-1.35-2.13,5.81-5.87,10.32-12.46,12.69,3.7-4.57,7.4-9.14,11.1-13.72,1.53-7.95,10.6-12.81,9.33-24.77-12.14,14.97-22.29,28.71-33.8,41.2-6.47,7.02-10.72,19.38-24.93,14.91-1.53-.48-4.73,4.32-8.48,7.97,1.95-14.69,12.24-24.79,15.16-38.51-8.23,2.07-7.45,11.18-13.32,13.99-6.05,13.24-12.11,26.47-18.16,39.71-1.36-.62-2.72-1.23-4.07-1.85,2.4-15.14,11.77-27.39,19.42-40.35.43-5.01,5.11-8.77,4.38-14.52-5.45,1.66-8.17,8.15-14.47,7.28-1.28,2.02-2.57,4.03-3.86,6.04-2.48,8.41-10.2,12.48-14.37,19.54-5.96-3.84-1.06-8.44-2.31-11.97-9.1,7.46-22.51,8.04-27.84,19.81.27,2.93-1.48,4.78-3.43,6.54-20.75,25.75-27.06,58.78-42.72,89.19-8.35-13.13-12.76-24.82-13.55-37.73-1.16,2.14-1.53,5.11-4.59,5.37-2.5.21-2.09-2.03-2.26-3.69-.96-9.83-1.96-19.66-2.94-29.48-2.64-2.28-12.02-2.32-2.75-8.6.58-.4,1.23-1.87,1.12-1.96-13.95-11.72-2.14-34.59-19.13-44.68-7.3-4.33-5.76-12.13-8.81-18.07-7.59-14.73-15.58-29.3-22.33-44.41-2.35-5.27-9.12-1.52-10.13-7.04-4.29.79-2.91,4.61-3.93,7.2-3.73,9.43-8.77,12.56-18.91,9.96,9.42,13.37,17.94,25.22,26.19,37.26,3.13,4.57,7.86,7.74,2.31,15.52-4.95,6.94,4.73,14.86,5.54,23.04.16,1.62,4.38,3.5,2.74,5.11-14.92,14.61,2.45,26.12,3.16,39.08.88,16.02,10.64,29.52,12.55,43.76,1.42,10.58,4.93,19.26,7.87,28.85,2.99,9.77-2.61,18.73-6.6,27.48-2.01,4.41-5.91,8.87,3.21,9.9,4.28.48,2.18,3.83,1.39,6.09-1.41,4.04-3.01,8-4.67,12.37-6.46-18.31-12.94-36.89-19.62-55.4-.94-2.6-1.18-7.15-5.24-6.29-4.93,1.04-3.17,5.68-2.49,8.71,2.7,11.96,10.91,22.93,6.03,38.65-10.38-16.92-7.05-36.33-18.1-52.77-.6,6.83-1.07,12.19-1.54,17.56-3.95-12.69-7.48-25.07-12.47-39.19-3.97,7.16-1.95,13.22-3.26,19.11-4.09-4.24-2.69-9.34-3.66-13.85-.67-3.1,1.78-7.88-2.91-8.74-1.56-.29-3.94,3.86-6.9,6.99-1.16-6.03.55-14.38-6.24-15.27-6.36-.83-4.55,8.39-10.2,12.83-.33-9.84,9.48-17.06,4.24-26.11-8.82,2.68-6.62,13.65-13.71,18.51-.2-9.22,6.15-15.83,6.86-24.02-.66-.55-1.34-1.07-2.05-1.56-5.53.58-6.46,7.51-11.63,8.6,7.87-10.78-.52-17.42-7.38-24.51-7.22,3.88-7.33,13.34-13.09,22.57-.18-10.29,7.28-16.1,4.28-24.33-7.79,1.47-6.91,10.79-12.8,13.31-.94-7.41,7.73-12.49,5.61-20.44-8.41-.08-8.3,9.64-15.25,12.39-.15-8.34,10.38-12.31,6.53-20.85-8.8,1.19-7.16,11.57-13.64,14.79-3.98-7.88,6-12.05,4.85-19.16-6.86-1.14-5.84,7.01-11.19,8.48-5.66-11.46-14.1-21-25.08-28.18-5.03-3.29-10.48-12.49-14.22,1.18-.32,1.18-12.04-5.94-14.23-9.31-4.07-6.27-8.77-11.54-16.94-12.82-2.65,7.43,9.27,8.99,5.17,17.06-6.6-7.95-11.49-2.03-16.7,2.04,0,0,.06-.04.06-.04-.53,8.64-9.26,2.25-12.65,7.46,6.12,2.83,12.59,2.04,18.77,2.79,14.28,1.72,29.86.94,34.26,20.04.9,3.9,5.9,2.82,9.19,3.61,9.66,2.32,22.75,1.87,26.43,11.8,6.55,17.7,29.83,13.69,34.68,31.98-2.33,2.43-7.24-.17-11.19,1.9-1.37,3.5,2.2,7.03,3.42,7.12,11.57.83,17.41,12.71,29.02,14.13,5.6.69,15.75,3.24,8.49,14.24-1.83,2.78,1.8,3.08,3.71,3.69,5.3,1.67,10.62,3.31,16.48,5.13-2.93,2.93-7.38.34-8.27,3.9-.84,3.35,2.72,4.25,4.92,5.06,10.39,3.82,13.67,15.79,24.67,20.18-3.85,2.86-8.24-1.06-11.85,3.95,21.45,8.19,40.19,19.6,47.86,42.67-18.37-7.62-36.52-15.85-55.26-22.43-4.99-1.75-14.43-10.36-17.54,3.51-1.6-.46-3.41-.59-4.76-1.44-5.52-3.49-10.98-7.09-16.32-10.85q-11.58-8.13-25.93-3.56c4.51,3.75,8.59,7.13,12.67,10.52,3.57.94,7.52,1.28,9.21,5.73-4.95,1.65-8.58.45-11.07-3.97-4.89-1.73-9.77-3.47-15.82-5.62.43,5.79,8.47,3.8,7.61,10.06-9.08-2.48-18.26.58-28.01-2.64-22.26-7.33-43.47,1.34-64.68,7.17-9.5,2.61-18.35,5.97-29.06,3.51-12.03-2.77-18.25,8.12-25.3,15.68-1.15,1.23-1.87,3.89.29,4.25,9.75,1.64,2.75,10.56,7.43,15.09,11.36-6.32,17.1-22.19,33.04-22.04,0,.78-.02,1.57-.03,2.35,12.19,1.74,22.76-4.97,34.99-7.29-5.27,7.36-14.73,8.79-18.23,16.74,4.33,2.93,8.53-2.34,12.66.24.07-.78.5-1.2,1.28-1.27-.01-.01-.02-.03-.03-.04,1.63-.36,3.27-.73,4.9-1.09.63-1.8,1.89-2.62,3.79-2.42,0,0,.54-.59.54-.59l.79.11c1.56-2.3,3.76-2.8,6.32-2.27,8.47-7.14,18.92-9.26,29.21-12.94,1.2,6.13-7.86,5.29-5.17,10.84,7.16-.68,12.85-6.36,20.33-5.96.94-1.62,2.34-2.17,4.11-1.69.34.09.57.58.85.88-1.36.58-2.73,1.15-4.09,1.73-4.91,6.25-14.22,6.31-18.65,13.23,2.63-.21,5.27-.42,7.9-.64,9.57-7.78,20.3-12.19,34.9-12.84-6.63,7.91-16.64,6.84-20.55,15.19,10.47-.09,18.41-8.75,29.94-7.71-3.63,8.35-15.38,8.03-16.34,19.73,13.05-8.07,26.11-13.3,39.23-18.42,2.65-1.03,5.43-4.19,7.87-2.41,14.43,10.57,32.24,5.77,47.88,11.07,12.76,4.32,19.35,14.77,29.59,23.12-7.82,2.52-10.04-2.99-13.9-5.36-6.67-4.09-4.48,1.3-4.47,4.27-9.07-3.5-20.25.7-28.05-7.69-.55-.59-2.81-.47-3.58.16-15.88,13.08-34.7,11.27-53.18,10.26-7.4-.4-4.23,6.17-5.76,7.35-6.69,5.15-14.27,9.61-23.88,6.53-19.53-6.26-35.86,5.78-53.97,9.45,9,4.98,19.06,4.73,27.47,9.68-2.25,9.92-8.91,16.44-18.87,19.03-12.33,3.2-19.78,14.09-31.11,18.8-3.59,1.49-3.45,5.33-4.21,8.87-1.3,6.04-1.82,13.33-10.04,15.03-3.69,6.14-10.01,9.25-15.42,13.4-12.48,15.05-21.47,32.35-31.63,48.9-4.06,6.61-10.71,10.06-16.6,14.51-4.21,3.19-10.13,4.78-12.25,11.1,8,2.36,11.35-6.41,17.84-6.13-7.76,8.81-6.68,21.31-12.81,30.78-4.48,6.93,7.11,6.92,5.94,12.33,2.39-3.89,4.25-8.11,3.97-12.63-.62-9.96,12.23-2.83,12.98-10.66.93,1.32,2.42,2.53,2.7,3.98,2.75,13.97,3.49-5.02,5.59-.32-.04-1.7-.08-3.4-.11-5.1-2.97-2.7-2.63-5.39.02-8.08.13-3.47.25-6.95.38-10.42-1.39-10.61,9.76-14.19,13.29-22.73,3.32-8.03,7.95-6.2,12.05-19.45,2.62-8.48,11.09-10.29,15.3-17.18,4.25-6.94,12.01-11.9,13.92-24.49,6.23,12.78,6.09,22.34,7.41,31.57.46,3.22-.86,8.25,3.8,8.5,3.86.21,5.11-4.5,5.76-7.76,2.95-14.95,5.55-29.97,8.21-44.97.38-2.14.23-4.41,3.78-6.81-1.51,12.28-7.6,22.89-5.37,34.45.52,2.68-1.62,6.91,2.88,7.45,3.13.37,5.84-2.05,6.84-5.17,5.66-17.76,10.1-36.02,17.25-53.15,2.79-6.7,10.98-14,17.79-15.28,5.71-1.07,2.49,7.96.5,11.1-5.96,9.41-8.72,20-12.74,30.11-1.77,4.45-3.03,9.19-3.78,13.92-.85,5.32.97,8.76,7.32,6.78.05-5.03.91-9.81,4.33-13.78-.34-1.8.47-2.85,2.15-3.35-.26-.76-.08-1.4.53-1.92-.56-1.81.09-3.06,1.79-3.82.61-1.66,1.23-3.31,1.84-4.97,1.31-6.77,4.33-12.56,8.99-17.35,5.47,2.09,1.93,7.13,4.36,9.81,4.37-2.24,3.79-8.84,9.16-10.03-.72-2.55-.48-4.62,2.62-5.21.37,2.34.3,4.47-2.6,5.22.05,10.87-10.59,18.55-9.38,32.3,6.09-8.51,6.91-17.66,13.27-23.92,3.56,4.49,1.47,8.66,1.24,12.68.72-.13,1.44-.24,2.16-.33,8-21.33,21.19-39.47,34.77-55.65-.41,1.36-2.76,4.68.73,6.69,2.76,1.59,4.28-1.81,6.1-3.5,3.59-3.37,5.42-9.04,11.45-9.25-4.12,5.67-8.23,11.28-12.27,16.93-1.28,1.79-2.47,3.98-.76,5.9,1.9,2.13,3.89.52,5.58-.8,3.37-2.62,6.7-6.62,9.91.14.44.42.88.85,1.32,1.27,4.54-1.4,9.38-2.46,9.65-8.56,4.81,3.02,7.29-3.26,10.8-2.82-18.08,20.46-32.81,44.47-53.73,63.23-3.87,3.47-7.46,9.35-2.84,13.79,5.25,5.04,7.77-2.35,11.13-4.87,5.8-4.37,9.63-11.46,17.72-12.63.84-1.38,1.68-2.76,3.66-1.73-1-6.17,3.87-7.26,9.08-10.04-2.16,5.39-5.27,8.02-9,10.13-.77.98-1.55,1.95-2.32,2.93-11.75,13.7-23.5,27.4-36.88,43.01,8.52-3.36,11.94-2.2,8.66,5.36,0,0,0,0,0,0-1.03,1.11-2.72,2.23-.96,3.82,1.75,1.57,2.72-.05,3.61-1.37.48-.08.96-.14,1.43-.21-7.54,10.36-15.2,20.63-22.43,31.2-2.48,3.63-8.36,8.1.28,12.1.87.4.65,4.02.26,6.02-.32,1.62-1.66,3.03-2.54,4.54-6.24,10.81-5.11,10.92-6.07,20.93-.85,8.94-3.95,17.83-7.16,26.33-5.23,13.85-12.22,27.07-16.79,41.11-3.14,9.67-1.56,20.54-5.22,30.42-3.28,8.86-4.41,18.86-13.67,24.35-1.11,1.6-2.21,3.21-3.32,4.81-2.61,11.86-2.28,22.8,9.67,30.31,3.17-3.26,1.06-7.35,1.66-10.96.61-3.69-1.79-8.58,2.73-10.72,4.83-2.29,4.28,6.21,9.23,5.4,2.17-5.09-.63-10.15-.31-15.1.54-8.33-7.93-18.65,5.21-24.89,1.66-.79.55-7.43.7-11.36.21-5.83.36-11.11,8.03-12.95,7.74-1.86,4.87-9.03,5.42-14.34.79-7.62-2.87-15.94,8.64-20.62,6.55-2.66.97-13.05,4.17-21.69,3.38,12.19,6.3,22.69,9.59,34.56,2.8-4.04,2.65-7.55,1.7-10.31-7.54-22.01,1.52-43.18,3.24-64.68.46-5.76,2.41-13.25,11.02-13.45,4.21-.1,3.5-2.82,3.62-5.33.79-16.02,4.52-30.82,15.84-43.12,4.43-4.82,6.16-11.45,8.43-17.66,1.15-3.15,1.32-9.14,8.74-5.73,6.6,3.04,3.67-4.03,3.89-6.16,1.15-10.8,3.45-20.77,13.48-27.04,0,0,0,0,0,0,2.66,3.32-3.21,11.42,6.11,11.01.86-8.03.11-16.27,3.19-23.99-1.71-3.35-.21-5.5,2.66-7.14.45-1.19.9-2.38,1.35-3.57.37-6.61,5.33-10.4,10.06-7.63,5.88,3.45,4.06,10.16.34,15.49.4,10.77-2.13,21.08-5,31.33,1.66,1.91,1.83,3.77-.2,5.55.49,41.7-3.32,83.08-7.46,124.54-9.36,93.81-14.16,187.84-13.95,282.23.14,61.83,1.49,123.54,5.27,185.2.94,15.28.87,30.6,2.99,45.9,3.49,25.12,5.44,50.46,8.04,75.7-2.36,12.23.77,24.48-.15,36.71.33,1.69.65,3.38.98,5.07,4.07,25.78,8.53,51.5,12.03,77.35,1.32,9.77,10.82,17.48,6.69,28.39-.08,1.82-.16,3.63-.24,5.45,4.88,32.08,9.53,64.2,20.74,94.89l2.73,15.77c.12,1.51.25,3.03.38,4.54,1.23,19.03,6.84,37.4,10.1,55.88-17.93,3.81-23.94-12.18-35.24-18.6-2.96,5.38,1.64,6.74,3.32,9.3,2.61,3.96,8.84,8.15-1.62,10.26-2.53.51-4.74,3.29-1.79,5.84,3.53,3.06,7.72,7.86,11.48,7.74,18.04-.58,13.23,7.55,7.43,16.59,13.47-4.47,27.23-8.22,40.32-13.61,19.6-8.08,40.35-11.25,60.75-15.95,2.86-.66,6.04.05,9.07.13,2.77,0,5.53.01,8.3.02,23.14-.31,46.25-.02,69.21,3.21-14.01-2-27.7-5.34-40.66-11.25-4.25-.37-8.51-.74-12.76-1.12-5.17,4.11-9.88.09-10.79-3.23-1.16-4.2,3.45-7.13,7.87-8.35,6.76-6.05,14.92-9.25,23.52-11.59,20.69-10.6,41.38-21.19,63.82-32.69-11.74-2.95-25.98,1.55-57.17,16.61,0,0-.32.13-.32.13-6.98,6.84-15,11.48-26.09,12.39,7.08-13.38,9.79-27.89,21.3-37.78,1.44-1.24.94-4.75,1.28-7.28-10.24-.01-14.96,9.68-23.15,13.27-6.38,7.55-6.58,17.79-11.37,26.03-.65,10.57-9.99,13.84-16.66,20.21,1.62-13.21.08-25.37-4.38-37.23-1.32-3.5-.66-8.44-6.46-8.09-4.73.29-6.69,3.55-7.4,7.82,0,0-15.17-26.01-34.42-84.13-2.05-11.48-4.18-22.94-7.89-33.86-16.02-47.12-22.87-96.26-33.78-144.49-3.26-14.43-7.71-28.76-7.57-43.81-.33-1.73-.66-3.45-.98-5.18-2.17-4.17-2.72-8.57-1.84-13.17-.45-6.45-.9-12.89-1.34-19.34-5.51-4.91-2.53-12.48-5.7-18.59-7.45-58.94-13.41-125.9-16.84-201.46,1.43-1.25,1.68-3.52,1.45-6.81-.82-11.66-1.27-23.34-2.33-35.11.22,3.21.02,6.35-.43,9.43-3.62-104.96-2.37-225.63,6.34-363.47,0,0-.16.52-.44,1.58,2.58-13.97,5.7-27.83,9.49-41.59,1.64-5.94,3.27-11.91,2.15-18.05-2.41-13.16,2.74-24.68,8.05-37.41,1.12,2.68,2.34,4.56,3.63,5.75-1.77,1.08-1.96,3.48-1.67,5.67.38,2.81,1.76,4.84,4.99,4.5,3.26-.34,3.82-2.84,4.07-5.49-.39-1.29-.91-2.52-1.64-3.48,2.35-.84,4.83-3.06,7.35-6.25,2.03,7.86-.03,16.15,8.7,19.02,4.59,1.51,2.98-4.24,6.3-5.57,3.29,8.48-4.62,17.25,1.69,25.58,6.41-4.23,5.24-11.97,8.75-20.52,4.48,13.03-12.01,24.46,2.13,34.52,1.46-6.09,2.85-11.89,4.44-18.57,8.62,3.97,11.57,11.5,10.97,18.93-.96,11.75.9,21.89,8.16,31.35,1.85,2.41,1.2,6.74,1.7,10.19,2.21,1.14,3.07,3.07,3.14,5.45,3.54,4.7,6.32,9.76,7.27,15.66,2.15,1.2,2.81,3.14,2.69,5.46,2.94,1.89,2.94,4.74,2.53,7.72,4.12,11.69,13.78,21.11,14.05,34.38,1.7,1.45,2.16,3.24,1.41,5.34.65.27.82.71.52,1.35,8.86-.46,7.2,6.36,7.98,11.5.5.24.71.64.62,1.19,4.41,1.13,5.9,4.17,6.79,8.5,5.33,25.83,19.18,49.14,21.86,75.94,5.47-10.2,1.81-20.44,2.37-30.47.39-6.89-7.53-22.68,12.71-15.6,5.63,1.97.12-5.08,2.06-7.43,7.92,4.74,9.93,14.93,17.43,19.68,8.55-2.87-3.63-12.47,5.54-14.81-2.82-7.22-5.64-14.43-8.46-21.65-4.76-5.82-10.25-11.46-5.01-19.81-.67-.72-1.34-1.45-2.01-2.17-9.82-15.2-22.81-27.69-35.32-40.52-8.67-8.88-7.15-21.93-14.17-31.28,10.79,2.29,14.35,12.98,21.95,18.96,2.74,2.15,4.77,7.98,9.26,3.7,3.44-3.28.99-7.55-1.65-10.55-4.91-5.58-10.58-10.52-15.19-16.33-4.16-5.24-12.83-7.73-8.8-18.43,1.7-4.52-5.87-10.35-10.88-13.71-14.94-10.01-20.36-29.1-36.79-37.71-4.86-2.55-.42-6.7,0-10.17,20.28,7.58,41.91,8.56,62.87,12.82-13.24-16.25-32.03-24.38-49.84-33.94l.05-.05c-2.19.03,3.12,5.32-2.36,3.24-4.27-1.62-8.3-4.67-13.31-3.17.79,1.65,1.57,3.31,2.36,4.96-9.67-1.51-16.28-9.06-26.21-12.52,9.72-5.52,18.77-4.8,28.27-4.37,13.98.63,28.12-2,41.91,2.04,3.9,1.14,9.04-.46,11.4,4.59h.02c15.46,1.2,28.83,8.45,42.35,15.04,6.17,3.01,6.93,9.59,8.22,15.61,2.29,10.63,5.53,20.89,14.13,31.55.46-14.76-7.94-24.87-10.75-37.99,22.94,12.74,28.09,35.61,37.24,55.32,6.99,15.07,14.13,29.84,23.83,43.33,1.87,2.61,4.12,5.65,7.08,4.57,1.69-.62,2.09-4.74,3.18-7.56,4.51,5.83,5.05,11.39.75,17.1,2.48,2.88,7.85,1.87,8.96,6.61,7.4-1.52,3.29-6.43,2.68-9.93-3.39-19.56-13.05-36.8-20.08-55.06,17.82,25.22,23.57,55.67,35.04,83.73,1.19-17.58-8.96-32.34-10.54-49.07-2.6-.93-2.87-2.95-2.53-5.27,2.86.42,3.48,2.31,3.11,4.84,12.51,11.61,13.08,28.34,18.08,43.09,1.36,4.02,1.88,8.19,5.56,12.32,6.84-9.88-3.96-17.91-2.06-26.88,5.79,4.84,6.68,12.32,10.66,17.93,1.22,1.71,2.41,4.01,5.05,2.92,2.44-1.01,2.94-4.01,1.87-5.5-5.75-8.03.33-12.31,4.92-17.16-.66-.25-.85-.7-.59-1.35-1.65-.58-2.46-1.73-2.45-3.45-1.73-.3-2.51-1.31-2.2-3.12-1.46-2.13-3.61-3.97-2.95-6.99-2.19-.39-4.7-.37-4.65-3.63-.66-.3-.91-.81-.74-1.52-1.65-.68-2.37-1.91-2.15-3.68-.63-.26-.85-.72-.66-1.38-8.47-11.97-22.33-18.86-31.82-31.16,6.54-2.65,7.98,2.73,11.36,3.51.98-10.45-12.55-11.24-13.68-20.29-.45-.75-.9-1.51-1.35-2.26,1.38-.67,1.93.1,2.25,1.28,2.51.93,5.02,1.86,7.53,2.8,1.79-5.75-6.91-7.34-5.31-13.01-1.82-2.44-3.63-4.88-5.45-7.32-6.34-2.05-10.79-6.76-15.59-10.98,0,0-.02,0-.02,0-3.91.07-6.47-1.82-7.84-5.42-3.63-3.55-8.66-3.72-13.05-5.45-1.84.26-2.92-.45-3.03-2.38-2.65-1.58-6.33-1.45-7.94-4.77-22.38-3.99-39.57-18.98-59.67-28.57,10.05-1.71,19.4,1.67,28.94,3.31,11.9,2.05,24.14-3.55,27.41-12.49-2.26-.81-4.52-1.63-6.79-2.44-14.86-.68-29.79,5.01-44.61-.47-1.71-.26-3.43-.53-5.14-.79-11.59.38-23.18.55-34.75,1.2-9.68.55-17.53-2.94-24.27-9.56-13.75-.22-27.5-.44-41.26-.66-6.51,2.63-11.96-.5-12.59-6.1-.54-4.82,4.48-7.86,10.23-5.34,2.51-1.49,5.17-1.8,7.96-.97,10.01-6.12,17.38-18.15,31.9-14.23.75.2,2.15,0,2.48-.5,13.15-20.27,32.59-8.65,49.49-9.81,1.72-.12,3.45.04,5.17,0,.36,0,.72-.33,1.56-.75-5.44-4.88-12.56-4.58-18.59-8.21,7.39.45,14.77.91,23.1,1.42-1.77-6.4-8.86-14.81,4.83-14.99,1.69-.31,3.38-.63,5.07-.95,16.98-.6,33.19-5.51,49.68-8.83,6.51-5,13.02-2.25,19.5.06,2.83,1.01,7.67,3.65,8.09,3.06,8.74-12.27,16.99-2.14,25.34.2.01-2.35-.23-7.36,1.54-6.22,10.65,6.93,22.84-.39,34.72,5.75,8.62,4.45,22.27,2.41,33.55,4.58,5.65,1.09,11.28,2.17,14.58,7.69,2.79,4.68,5.46,7.49,12.36,6.35,3.73-.62,8.78,4.88,12.78,8.16,14.4,11.82,28.61,23.88,42.96,35.9,6.73-11.75-2.87-16.56-9.14-21.41ZM1918.37,100.41c-.17.69-.34,1.38-.5,2.07-.12-.25-.41-.6-.33-.75.24-.46.54-.89.84-1.32ZM1689.11,96.65c-.37-.28-.74-.56-1.11-.85.27-.24.56-.68.82-.66.26.02.48.49.72.77-.15.25-.29.49-.44.74ZM1556.82,182.74c.41-.26.82-.53,1.23-.79-.11.29-.22.57-.4.79-.11.13-.54,0-.83,0ZM1578.16,191.99c-4.96-.79.58-2.97.33-4.81-.13-.99,1.11-2.16,2.29-4.25.72,4.6-.81,9.35-2.63,9.06ZM1583.58,204.52c-1.04-4.43,1.81-6.77,3.36-9.47.01,3.15.35,6.43-3.36,9.47ZM1675.4,330.18c-1.29-1.21-2.58-2.42-3.87-3.63,2.18-.6,3.55.31,4.17,2.49.09.33-.2.76-.31,1.14ZM1568.78,421.12c.1-13.89,8.27-22.9,18.46-30.7-4.56,11.2-9.71,22.04-18.46,30.7ZM1633.68,400.53c.18-.09.4-.12.61-.14-.34.26-.67.53-1.01.79.13-.23.21-.56.4-.65ZM1639.36,399.81c-1.49-.92-2.99-.15-4.49.27,1.22-3.23,4.33-4.5,6.8-6.5,1.37,2.76-3.94,3.47-2.31,6.23ZM1599.24,497.56c-.25-.28-.5-.56-.77-.87.08-.18.21-.45.34-.72.4.26.81.52,1.21.77-.26.27-.52.54-.78.81ZM1658.4,444.66c.11-.29.23-.58.42-.8.12-.14.56.01.85.03-.42.26-.85.51-1.27.77ZM1663.64,866.13c-3.12-7.8-1.71-16.06-.08-24.33,0,7.95.03,16.07.08,24.33ZM1661.47,900.64c-.28-8.57-.02-13.34,2.34-15.75.41,36.96,1.34,76.94,2.94,120.1-1.35-4.34-1.76-9-1.88-13.95-.72-30.15-2.42-60.27-3.4-90.41ZM1667.52,1056.32c-.12-5.36-.25-10.72-.37-16.09-2.66-5.46-3.36-10.92.07-16.35.02-.76.07-1.5.17-2.21.75,18.65,1.62,37.88,2.62,57.7-.23-2.53-.45-5.07-.68-7.6-2.67-4.91-1.86-10.22-1.82-15.45ZM1671.05,1099.35c.1,1.85.2,3.7.3,5.56-.97-1.81-.92-3.67-.3-5.56ZM1672.44,1124.21c.2,3.42.4,6.85.6,10.3-.7-3.4-.81-6.84-.6-10.3ZM1866.2,605.49c-2.76-.76-2.93-2.8-2.57-5.09,2.63.79,3.19,2.64,2.57,5.09ZM1863.54,600.19c-2.54-.89-3.63-2.46-2.5-5.11,2.45.92,2.92,2.8,2.5,5.11ZM1860.93,594.91c-5.92.26-5.71-3.6-5.14-7.69,3.72,1.22,5.12,3.99,5.14,7.69ZM1855.54,586.89c-.48-.18-.95-.36-1.43-.53,1.4-1.58,1.24-.19,1.43.53ZM1824.06,494.93c-6.53-.41-7.78-5.31-8.85-10.36,3.85,2.69,8.85,4.43,8.85,10.36ZM1781.26,409.73c.21.17.35.41.5.65l-1.32-.56c.28-.04.68-.21.83-.09ZM2014.01,525.86c-.07-.59-.15-1.19-.22-1.78.51.34,1.02.69,1.53,1.03-.44.25-.87.5-1.31.75ZM2013.57,523.76c-.57-.23-1.14-.46-1.72-.69,1.73-2.05,1.51-.27,1.72.69ZM1974.9,489.71c.03-.28.63-.49.97-.73.29,1.1.58,2.21.87,3.31-1.6-.11-1.98-1.2-1.84-2.58ZM1923.06,435.51c-5.47-1.62-5.76-5-3.85-9.26,1.98,2.66,4.73,5.01,3.85,9.26ZM1914.99,424.91c1.17.36,2.35.71,3.52,1.07-1.22.04-2.43.08-3.65.12.04-.4.08-.8.13-1.19ZM1729.64,315.87c4.49-5.38,6.12-11.33,12.64-12.66-4.32,3.4-3.7,11.31-12.64,12.66ZM1742.76,302.78c-1.6-3.29.48-5.1,5.81-8.28-2.98,4.25-4.41,6.29-5.81,8.28ZM1756.74,297.17c-1.95-5.15-.51-7.36,4.12-7.43.13,3.19-2,4.98-4.12,7.43ZM2067.87,302.3c-.26-.13-.51-.26-.77-.4.28-.35.56-.69.84-1.04.25.25.5.5.75.76-.27.23-.55.45-.82.68Z"/>
    <path class="st0" d="M1447.02,333.4c.15-.52.3-1.04.45-1.57-.85.25-2.31.24-.45,1.57Z"/>
    <path class="st0" d="M1447.48,331.84c.07-.02.14-.04.2-.07,0,0-.04-.03-.07-.06l.07.06s0-.07,0-.11c-.05,0-.1,0-.14-.02-.02.06-.04.13-.06.19Z"/>
    <path class="st0" d="M1705.97,446.22c.25.28.56.84.75.8.57-.1,1.09-.44,1.63-.7-.26-.29-.57-.85-.76-.81-.57.11-1.08.46-1.62.71Z"/>
    <path class="st0" d="M1627.62,410.06c.1.15,1.69-.7,2.59-1.09-.44-.42-.88-.84-1.32-1.27-1.2.39-2.17.99-1.27,2.35Z"/>
    <path class="st0" d="M1463.26,487.13c-.11,1.16.18,2.35.34,3.79,1.01-.57,2.12-.93,2.11-1.25-.04-1.18-.44-2.34-.71-3.51-.61.32-1.71.59-1.74.96Z"/>
    <path class="st0" d="M1518.58,331.82c.08.01.15,0,.22.02h0c-.03-.06-.04-.11-.07-.17-.02,0-.04,0-.06,0-.03.05-.07.09-.1.14Z"/>
    <path class="st0" d="M1505.64,338.64c6.43-1.11,10.47-2.6,12.94-6.81-5.19-.69-8.82,1.55-12.94,6.81Z"/>
  </g>
</svg>