<svg version="1.1" id="Layer_1" xmlns="http://www.w3.org/2000/svg" xmlns:xlink="http://www.w3.org/1999/xlink" x="0px" y="0px"
	 width="100%" viewBox="0 0 712 250" enable-background="new 0 0 712 250" xml:space="preserve">
<path fill="#FFFFFF" opacity="1.000000" stroke="none" 
	d="
M539.000000,251.000000 
	C359.379883,251.000000 180.259766,251.000000 1.069826,251.000000 
	C1.069826,167.734924 1.069826,84.469765 1.069826,1.102303 
	C238.333313,1.102303 475.666656,1.102303 712.977295,1.102303 
	C712.977295,84.406853 712.977295,167.703430 712.977295,251.000000 
	C655.136414,251.000000 597.318237,251.000000 539.000000,251.000000 
M484.759705,226.662216 
	C486.384552,226.443771 488.012115,226.243408 489.633850,226.003891 
	C498.752899,224.657074 507.870575,223.300812 517.857605,221.988297 
	C531.901794,219.310425 545.945984,216.632553 560.824951,213.985977 
	C573.341980,211.107300 585.946472,208.556274 598.347961,205.244873 
	C608.033447,202.658722 617.466797,199.128433 627.754700,195.931473 
	C641.966248,189.217880 656.686401,183.387680 670.262451,175.570465 
	C687.831055,165.454315 699.370117,150.759247 697.892578,128.042953 
	C701.716797,116.183632 699.178833,105.303528 691.803955,95.775513 
	C684.077332,85.792984 673.700500,78.767677 662.672302,72.850937 
	C646.100769,63.960125 628.971375,56.277569 610.752441,51.416096 
	C591.878174,46.379765 573.018005,41.169350 553.921143,37.123116 
	C535.834167,33.290844 517.502869,30.474483 499.178192,27.939772 
	C481.340485,25.472424 463.382080,23.860178 445.461670,22.018158 
	C439.532654,21.408718 433.558899,21.218580 427.602448,20.894840 
	C410.065125,19.941668 392.526276,19.017618 374.058746,18.015882 
	C369.039825,18.019848 364.020935,18.023815 358.334229,17.979525 
	C357.888397,17.995781 357.442566,18.012035 356.076721,17.983452 
	C352.384583,17.999546 348.692413,18.015642 344.201111,17.979641 
	C343.134033,17.999329 342.066986,18.019018 340.333984,17.997995 
	C339.889618,18.011385 339.445251,18.024775 338.334259,17.987249 
	C337.889221,18.005062 337.444214,18.022875 336.063049,17.995102 
	C323.283691,18.346062 310.475769,18.278217 297.731842,19.148245 
	C279.592163,20.386641 261.492950,22.245064 243.388870,23.969276 
	C229.898804,25.254063 216.334122,26.154877 202.971924,28.287285 
	C184.063934,31.304722 165.194656,34.779259 146.518448,38.988403 
	C111.587898,46.860855 76.906631,55.743965 45.637966,74.148216 
	C36.242340,79.678345 26.563831,85.055229 20.112782,94.336121 
	C13.324389,104.102333 9.606767,114.566063 13.631536,127.234947 
	C13.826331,129.483871 14.021127,131.732788 13.679304,134.137726 
	C13.910419,134.818848 14.141535,135.499969 14.546988,137.047882 
	C15.117903,151.569031 22.219755,162.296112 33.500412,170.973099 
	C48.128372,182.224808 64.665543,189.513306 82.441292,195.893570 
	C88.588577,198.092239 94.735863,200.290909 101.483170,202.851913 
	C125.638733,208.436508 149.794296,214.021103 174.751801,219.889359 
	C184.145630,221.468079 193.539459,223.046783 203.780609,224.883606 
	C205.583878,225.091080 207.386917,225.300446 209.190430,225.505783 
	C221.781647,226.939133 234.372940,228.371628 247.819382,229.974533 
	C266.523315,231.161163 285.227264,232.347794 304.853119,233.790985 
	C322.216156,234.074554 339.579163,234.358109 357.872620,234.848434 
	C365.235077,234.810974 372.597504,234.773514 380.821594,234.867508 
	C398.876556,233.876953 416.931549,232.886398 435.844025,231.965744 
	C439.560547,231.616455 443.277069,231.267166 447.822296,230.897171 
	C459.876831,229.573181 471.931366,228.249207 484.759705,226.662216 
z"/>
<path fill="#CECFD0" opacity="1.000000" stroke="none" 
	d="
M446.993591,230.917877 
	C443.277069,231.267166 439.560547,231.616455 435.377502,231.585526 
	C432.350769,228.389771 431.426575,225.479431 433.788971,221.954529 
	C434.565674,220.795654 434.555725,219.110199 434.907867,217.666107 
	C436.535797,210.990387 435.348541,209.192719 428.504913,208.100555 
	C427.530060,207.944977 426.517059,208.004715 425.521729,208.004333 
	C411.239075,207.998917 396.956268,207.969955 382.673981,208.043396 
	C381.114075,208.051422 379.557251,208.658371 377.544434,208.990723 
	C370.392456,208.997177 363.695007,209.000412 356.529053,209.002533 
	C339.371948,208.671112 322.683319,208.340790 305.555359,208.004883 
	C298.746796,207.638809 292.377563,207.278351 286.005829,206.491058 
	C285.916443,202.709869 287.035645,198.641495 281.311462,198.789825 
	C280.710358,198.805405 280.069916,197.302094 279.447723,196.503448 
	C280.415527,196.217377 281.398407,195.973679 282.347717,195.635651 
	C283.908539,195.079834 285.447540,194.462906 286.995758,193.871750 
	C286.814178,193.381104 286.632629,192.890472 286.451050,192.399826 
	C281.166565,192.399826 275.882080,192.399826 270.479736,192.399826 
	C270.125671,190.762741 269.768616,189.111771 269.411530,187.460800 
	C269.015778,187.294952 268.619995,187.129089 268.224243,186.963226 
	C267.969879,192.816422 265.368896,196.803482 260.840088,198.318420 
	C257.946655,197.837112 255.657196,197.456284 253.367706,197.075439 
	C253.176514,197.641388 252.985321,198.207352 252.794128,198.773315 
	C254.860641,200.535538 256.927155,202.297760 258.540131,204.055756 
	C255.061356,203.992783 252.036148,203.934021 248.999146,203.525482 
	C248.513275,202.499893 248.039200,201.824051 247.565094,201.148224 
	C247.040527,201.779846 246.515976,202.411484 245.606781,203.042297 
	C244.455246,203.087036 243.688370,203.132599 242.492920,203.131378 
	C233.712692,202.331894 225.361008,201.579163 216.935989,200.488556 
	C215.464172,198.529633 214.065674,196.908554 212.667191,195.287491 
	C213.108932,194.804581 213.550690,194.321671 213.992432,193.838760 
	C215.137680,194.519867 216.219955,195.603928 217.441818,195.794937 
	C219.713623,196.150085 222.507187,196.793488 224.274658,195.831207 
	C226.485046,194.627777 227.996048,192.067200 225.818558,189.051117 
	C225.245148,188.256866 225.741623,186.690231 225.746811,185.478271 
	C227.488129,185.559799 229.283722,185.439407 230.928146,185.881424 
	C231.287109,185.977905 231.269913,188.103851 231.124680,189.257187 
	C230.996536,190.274658 230.447952,191.239166 229.952087,192.588928 
	C233.129227,193.089874 235.755203,193.503937 237.322723,193.751099 
	C237.748535,190.411743 237.636810,187.585403 238.532166,185.125641 
	C239.909348,181.342133 241.977905,177.810272 243.710098,174.259857 
	C241.154449,172.696762 239.785461,171.859467 237.502747,170.463303 
	C245.642838,171.245331 246.669022,170.869766 251.814743,166.998703 
	C252.576050,166.425964 254.451889,166.426804 255.246918,166.977768 
	C257.593140,168.603821 259.655762,170.639099 262.390198,172.998093 
	C260.212708,174.062958 258.295776,175.000397 256.371094,175.941635 
	C259.006622,179.459503 266.235168,181.272827 270.589050,178.412704 
	C276.915955,174.256454 282.327728,175.062500 288.187805,178.973862 
	C290.644073,180.613312 293.647522,181.433075 296.809082,182.801620 
	C295.161133,177.967361 293.596893,174.144028 287.827423,174.726318 
	C287.078278,174.801926 285.739380,171.933121 285.213470,170.258636 
	C284.885956,169.215912 285.573212,167.854462 285.851013,166.394623 
	C280.013763,168.437561 276.140686,167.611237 274.125519,163.975632 
	C276.899231,161.407288 282.122528,161.663879 283.044006,156.755463 
	C283.082764,156.548904 284.212341,156.524841 284.838165,156.454773 
	C287.079895,156.203842 289.323456,155.969711 292.318542,155.648544 
	C291.622223,152.873581 291.056671,150.619751 290.492798,148.373169 
	C295.574402,144.639893 295.574402,144.639893 294.897705,142.209824 
	C293.368286,143.273132 291.927338,144.334717 290.428131,145.306381 
	C285.381012,148.577454 281.213715,146.789948 281.636902,141.538040 
	C283.321777,141.968140 285.219208,143.109894 286.640533,142.679504 
	C289.671143,141.761795 292.454834,140.028625 295.456970,138.572739 
	C296.103119,137.062561 297.049408,135.161209 297.729797,133.169052 
	C298.347229,131.361084 298.675079,129.454208 299.012695,128.073257 
	C296.457886,127.278061 294.915161,126.797874 293.372406,126.317688 
	C294.753632,125.521400 296.055267,124.264786 297.530060,124.009865 
	C303.394623,122.996170 305.940552,118.332222 308.983948,114.163315 
	C309.708313,113.171074 310.324768,111.389191 311.138062,111.299072 
	C314.220306,110.957527 317.362976,111.161598 321.596405,111.161598 
	C313.218414,116.901169 312.352264,119.589996 316.304382,125.294510 
	C316.800385,126.010422 318.010803,126.912376 318.585968,126.735985 
	C319.494202,126.457458 320.560913,125.456436 320.817505,124.550690 
	C321.350922,122.668022 321.038300,120.498161 321.770782,118.736237 
	C322.252197,117.578323 324.073669,116.117165 325.074829,116.266685 
	C326.175781,116.431099 327.338654,118.150734 327.895508,119.442413 
	C328.466766,120.767632 328.337921,122.394684 328.515503,123.889626 
	C329.262756,123.850807 330.010010,123.811981 330.757263,123.773163 
	C330.576355,120.432373 330.395447,117.091591 330.227295,113.986443 
	C328.928101,113.412369 327.621490,112.835022 326.314880,112.257675 
	C326.945709,111.342705 327.580658,109.656387 328.206573,109.659737 
	C329.969360,109.669159 331.728455,110.373329 333.133667,110.716774 
	C336.100159,105.400879 340.556671,99.992729 342.160797,93.840813 
	C343.885681,87.225929 348.925323,86.134895 351.788879,84.190125 
	C356.530304,77.022202 362.067413,71.062805 356.770966,62.103405 
	C361.693573,62.441509 365.557648,62.706909 370.209656,63.026428 
	C371.604248,61.275436 373.169922,57.982754 375.773376,56.429871 
	C378.172882,54.998608 381.687103,55.436092 384.724548,55.048611 
	C381.681824,52.469093 379.338196,50.648109 377.193695,48.616951 
	C375.107910,46.641422 371.937378,44.619884 371.633057,42.304474 
	C371.353088,40.173901 374.252625,37.625484 375.702179,35.338932 
	C385.498627,37.276325 385.498627,37.276325 380.901550,44.979530 
	C382.642548,45.218224 385.139771,45.907990 385.314728,45.528164 
	C386.442596,43.079330 387.517914,40.422665 387.668610,37.780510 
	C387.750793,36.338806 386.333801,34.216324 384.987061,33.398109 
	C380.654907,30.766140 376.036163,28.607094 371.540588,26.241634 
	C370.811035,25.857754 369.890259,25.504873 369.508301,24.867632 
	C368.873291,23.808283 368.265411,22.509512 368.336121,21.353777 
	C368.366913,20.850620 370.111511,20.463097 371.068176,20.003187 
	C372.379578,19.372755 373.681824,18.723408 374.988007,18.082169 
	C392.526276,19.017618 410.065125,19.941668 427.602448,20.894840 
	C433.558899,21.218580 439.532654,21.408718 445.461670,22.018158 
	C463.382080,23.860178 481.340485,25.472424 499.178192,27.939772 
	C517.502869,30.474483 535.834167,33.290844 553.921143,37.123116 
	C573.018005,41.169350 591.878174,46.379765 610.752441,51.416096 
	C628.971375,56.277569 646.100769,63.960125 662.672302,72.850937 
	C673.700500,78.767677 684.077332,85.792984 691.803955,95.775513 
	C699.178833,105.303528 701.716797,116.183632 697.538757,128.534424 
	C696.756531,129.266815 696.167969,129.399902 695.922729,129.764145 
	C685.110535,145.824448 669.090637,154.903961 651.998474,162.521683 
	C644.024780,166.075409 635.989868,169.491714 627.580322,172.976471 
	C611.786621,177.324661 596.395203,181.666687 580.586670,186.005096 
	C579.189026,186.137573 578.202698,186.241379 577.228760,186.414536 
	C561.152405,189.272629 545.077576,192.139420 528.571777,195.001831 
	C519.626770,196.095078 511.117493,197.231842 502.596680,198.274384 
	C494.737976,199.235916 486.866852,200.096298 478.536530,201.000443 
	C462.585907,202.382065 447.099976,203.764465 431.614044,205.146851 
	C431.573151,205.674576 431.532227,206.202316 431.491333,206.730042 
	C439.314758,207.175735 447.653748,205.797119 453.767395,212.273865 
	C451.519592,218.460678 449.256592,224.689270 446.993591,230.917877 
z"/>
<path fill="#CBCCCE" opacity="1.000000" stroke="none" 
	d="
M374.523376,18.049026 
	C373.681824,18.723408 372.379578,19.372755 371.068176,20.003187 
	C370.111511,20.463097 368.366913,20.850620 368.336121,21.353777 
	C368.265411,22.509512 368.873291,23.808283 369.508301,24.867632 
	C369.890259,25.504873 370.811035,25.857754 371.540588,26.241634 
	C376.036163,28.607094 380.654907,30.766140 384.987061,33.398109 
	C386.333801,34.216324 387.750793,36.338806 387.668610,37.780510 
	C387.517914,40.422665 386.442596,43.079330 385.314728,45.528164 
	C385.139771,45.907990 382.642548,45.218224 380.901550,44.979530 
	C385.498627,37.276325 385.498627,37.276325 375.702179,35.338932 
	C374.252625,37.625484 371.353088,40.173901 371.633057,42.304474 
	C371.937378,44.619884 375.107910,46.641422 377.193695,48.616951 
	C379.338196,50.648109 381.681824,52.469093 384.724548,55.048611 
	C381.687103,55.436092 378.172882,54.998608 375.773376,56.429871 
	C373.169922,57.982754 371.604248,61.275436 370.209656,63.026428 
	C365.557648,62.706909 361.693573,62.441509 356.770966,62.103405 
	C362.067413,71.062805 356.530304,77.022202 351.788879,84.190125 
	C348.925323,86.134895 343.885681,87.225929 342.160797,93.840813 
	C340.556671,99.992729 336.100159,105.400879 333.133667,110.716774 
	C331.728455,110.373329 329.969360,109.669159 328.206573,109.659737 
	C327.580658,109.656387 326.945709,111.342705 326.314880,112.257675 
	C327.621490,112.835022 328.928101,113.412369 330.227295,113.986443 
	C330.395447,117.091591 330.576355,120.432373 330.757263,123.773163 
	C330.010010,123.811981 329.262756,123.850807 328.515503,123.889626 
	C328.337921,122.394684 328.466766,120.767632 327.895508,119.442413 
	C327.338654,118.150734 326.175781,116.431099 325.074829,116.266685 
	C324.073669,116.117165 322.252197,117.578323 321.770782,118.736237 
	C321.038300,120.498161 321.350922,122.668022 320.817505,124.550690 
	C320.560913,125.456436 319.494202,126.457458 318.585968,126.735985 
	C318.010803,126.912376 316.800385,126.010422 316.304382,125.294510 
	C312.352264,119.589996 313.218414,116.901169 321.596405,111.161598 
	C317.362976,111.161598 314.220306,110.957527 311.138062,111.299072 
	C310.324768,111.389191 309.708313,113.171074 308.983948,114.163315 
	C305.940552,118.332222 303.394623,122.996170 297.530060,124.009865 
	C296.055267,124.264786 294.753632,125.521400 293.372406,126.317688 
	C294.915161,126.797874 296.457886,127.278061 299.012695,128.073257 
	C298.675079,129.454208 298.347229,131.361084 297.729797,133.169052 
	C297.049408,135.161209 296.103119,137.062561 295.456970,138.572739 
	C292.454834,140.028625 289.671143,141.761795 286.640533,142.679504 
	C285.219208,143.109894 283.321777,141.968140 281.636902,141.538040 
	C281.213715,146.789948 285.381012,148.577454 290.428131,145.306381 
	C291.927338,144.334717 293.368286,143.273132 294.897705,142.209824 
	C295.574402,144.639893 295.574402,144.639893 290.492798,148.373169 
	C291.056671,150.619751 291.622223,152.873581 292.318542,155.648544 
	C289.323456,155.969711 287.079895,156.203842 284.838165,156.454773 
	C284.212341,156.524841 283.082764,156.548904 283.044006,156.755463 
	C282.122528,161.663879 276.899231,161.407288 274.125519,163.975632 
	C276.140686,167.611237 280.013763,168.437561 285.851013,166.394623 
	C285.573212,167.854462 284.885956,169.215912 285.213470,170.258636 
	C285.739380,171.933121 287.078278,174.801926 287.827423,174.726318 
	C293.596893,174.144028 295.161133,177.967361 296.809082,182.801620 
	C293.647522,181.433075 290.644073,180.613312 288.187805,178.973862 
	C282.327728,175.062500 276.915955,174.256454 270.589050,178.412704 
	C266.235168,181.272827 259.006622,179.459503 256.371094,175.941635 
	C258.295776,175.000397 260.212708,174.062958 262.390198,172.998093 
	C259.655762,170.639099 257.593140,168.603821 255.246918,166.977768 
	C254.451889,166.426804 252.576050,166.425964 251.814743,166.998703 
	C246.669022,170.869766 245.642838,171.245331 237.502747,170.463303 
	C239.785461,171.859467 241.154449,172.696762 243.710098,174.259857 
	C241.977905,177.810272 239.909348,181.342133 238.532166,185.125641 
	C237.636810,187.585403 237.748535,190.411743 237.322723,193.751099 
	C235.755203,193.503937 233.129227,193.089874 229.952087,192.588928 
	C230.447952,191.239166 230.996536,190.274658 231.124680,189.257187 
	C231.269913,188.103851 231.287109,185.977905 230.928146,185.881424 
	C229.283722,185.439407 227.488129,185.559799 225.746811,185.478271 
	C225.741623,186.690231 225.245148,188.256866 225.818558,189.051117 
	C227.996048,192.067200 226.485046,194.627777 224.274658,195.831207 
	C222.507187,196.793488 219.713623,196.150085 217.441818,195.794937 
	C216.219955,195.603928 215.137680,194.519867 213.992432,193.838760 
	C213.550690,194.321671 213.108932,194.804581 212.667191,195.287491 
	C214.065674,196.908554 215.464172,198.529633 216.542358,200.545166 
	C209.488663,199.947510 202.755249,198.955353 195.716537,197.725494 
	C186.250061,196.119324 177.088898,194.750885 167.563065,193.268860 
	C150.127472,189.462799 133.056549,185.770355 115.668083,181.925461 
	C109.561607,180.212036 103.772675,178.651077 97.655136,176.901077 
	C89.879143,174.152939 82.351143,171.804398 75.000923,168.991348 
	C59.165489,162.930878 43.500702,156.331436 30.690536,144.869583 
	C24.488317,139.320175 19.252312,132.690903 13.578844,126.550552 
	C9.606767,114.566063 13.324389,104.102333 20.112782,94.336121 
	C26.563831,85.055229 36.242340,79.678345 45.637966,74.148216 
	C76.906631,55.743965 111.587898,46.860855 146.518448,38.988403 
	C165.194656,34.779259 184.063934,31.304722 202.971924,28.287285 
	C216.334122,26.154877 229.898804,25.254063 243.388870,23.969276 
	C261.492950,22.245064 279.592163,20.386641 297.731842,19.148245 
	C310.475769,18.278217 323.283691,18.346062 336.571533,18.311165 
	C337.485229,18.939518 337.890472,19.251804 338.295685,19.564095 
	C338.530762,19.055452 338.765808,18.546808 339.000885,18.038164 
	C339.445251,18.024775 339.889618,18.011385 340.730103,18.360123 
	C342.801849,20.647898 344.154541,20.761988 345.000275,18.031738 
	C348.692413,18.015642 352.384583,17.999546 356.502136,18.354340 
	C357.075500,19.750767 357.223450,20.776306 357.371399,21.801846 
	C357.914917,20.543825 358.458466,19.285803 359.002014,18.027782 
	C364.020935,18.023815 369.039825,18.019848 374.523376,18.049026 
M365.986633,51.286121 
	C365.512421,50.581329 365.038177,49.876541 364.563965,49.171741 
	C364.165741,49.554295 363.767517,49.936848 363.369293,50.319405 
	C364.246185,50.879555 365.123108,51.439705 366.103058,52.671547 
	C368.458466,53.640453 368.458466,53.640453 369.428894,50.428146 
	C368.207062,50.988300 367.103546,51.494225 365.986633,51.286121 
M267.441254,161.069748 
	C266.419556,162.503983 265.236786,163.853973 264.428436,165.399750 
	C263.809845,166.582657 263.305664,168.056717 263.458832,169.315048 
	C263.536377,169.952072 265.377686,171.015594 266.074921,170.794296 
	C267.295319,170.406921 268.807190,169.377945 269.206818,168.262939 
	C270.315979,165.167938 270.915741,161.890366 272.067505,157.281311 
	C270.038666,158.893005 268.994415,159.722534 267.441254,161.069748 
M210.570343,172.941376 
	C210.358734,174.365204 209.712143,176.918579 210.005386,177.031494 
	C212.072769,177.827652 215.312790,179.211060 216.302460,178.321030 
	C217.782440,176.990005 217.722687,173.946945 218.699158,170.149261 
	C215.014557,171.239670 213.073639,171.814041 210.570343,172.941376 
M275.719360,148.539444 
	C275.436707,146.771790 275.366394,144.929718 274.783813,143.267166 
	C274.482758,142.408112 273.272278,141.867706 272.472717,141.183319 
	C272.029449,142.081161 271.086273,143.077347 271.239777,143.857742 
	C271.645294,145.918732 272.468018,147.911987 273.324493,149.843597 
	C273.395905,150.004562 274.971985,149.498352 275.719360,148.539444 
M279.075745,122.405914 
	C279.748474,120.833488 280.421234,119.261063 281.093964,117.688637 
	C276.815491,118.349823 275.578796,119.932983 279.075745,122.405914 
M366.588776,33.468353 
	C368.149017,32.564335 369.709229,31.660315 371.269440,30.756296 
	C367.533722,28.539249 365.889069,29.350908 366.588776,33.468353 
M353.423523,68.343529 
	C352.282471,69.136894 351.141449,69.930260 350.000397,70.723625 
	C350.148773,71.185760 350.297150,71.647903 350.445526,72.110039 
	C351.697266,72.110039 352.949005,72.110039 354.200745,72.110039 
	C354.140137,70.969452 354.079498,69.828865 353.423523,68.343529 
M256.505524,161.135681 
	C257.301300,162.055954 258.097107,162.976242 258.892883,163.896515 
	C259.361328,163.485153 259.829742,163.073792 260.298187,162.662415 
	C258.983856,161.097366 257.669525,159.532303 256.355164,157.967239 
	C256.000427,158.205185 255.645691,158.443130 255.290939,158.681076 
	C255.556213,159.321228 255.821487,159.961380 256.505524,161.135681 
M290.091095,129.595428 
	C289.991730,130.247757 289.892365,130.900101 289.792999,131.552414 
	C290.331421,131.328583 290.869873,131.104736 291.408295,130.880905 
	C291.145203,130.361923 290.882111,129.842941 290.091095,129.595428 
M201.390717,175.202438 
	C201.785492,175.206635 202.180283,175.210831 202.575058,175.215027 
	C202.576584,175.051193 202.589066,174.745010 202.578033,174.744156 
	C202.185196,174.713882 201.790176,174.712173 201.390717,175.202438 
M367.390686,39.202488 
	C367.785492,39.206665 368.180267,39.210846 368.575073,39.215023 
	C368.576569,39.051193 368.589050,38.744968 368.578003,38.744110 
	C368.185150,38.713829 367.790100,38.712135 367.390686,39.202488 
M262.431244,159.703461 
	C262.704163,159.989349 262.977051,160.275253 263.249969,160.561142 
	C263.368286,160.447998 263.595673,160.242691 263.589172,160.234985 
	C263.334473,159.933456 263.058441,159.649902 262.431244,159.703461 
M281.609222,107.797516 
	C281.214447,107.793343 280.819702,107.789169 280.424927,107.784996 
	C280.423462,107.948814 280.410980,108.255028 280.422058,108.255875 
	C280.814880,108.286140 281.209869,108.287819 281.609222,107.797516 
M320.568726,103.296539 
	C320.295837,103.010651 320.022949,102.724762 319.750031,102.438889 
	C319.631714,102.552040 319.404297,102.757355 319.410767,102.765030 
	C319.665497,103.066566 319.941498,103.350105 320.568726,103.296539 
z"/>
<path fill="#69655E" opacity="1.000000" stroke="none" 
	d="
M13.605190,126.892746 
	C19.252312,132.690903 24.488317,139.320175 30.690536,144.869583 
	C43.500702,156.331436 59.165489,162.930878 75.000923,168.991348 
	C82.351143,171.804398 89.879143,174.152939 97.600182,177.235184 
	C93.425194,182.161575 88.906876,186.497925 84.573814,191.012100 
	C83.396057,192.239075 82.776909,194.002258 81.901382,195.519348 
	C64.665543,189.513306 48.128372,182.224808 33.500412,170.973099 
	C22.219755,162.296112 15.117903,151.569031 14.637675,136.349518 
	C14.557549,135.094681 14.386735,134.538193 14.215922,133.981705 
	C14.021127,131.732788 13.826331,129.483871 13.605190,126.892746 
z"/>
<path fill="#E9EAE9" opacity="1.000000" stroke="none" 
	d="
M627.982666,172.970306 
	C635.989868,169.491714 644.024780,166.075409 651.998474,162.521683 
	C669.090637,154.903961 685.110535,145.824448 695.922729,129.764145 
	C696.167969,129.399902 696.756531,129.266815 697.512268,128.948242 
	C699.370117,150.759247 687.831055,165.454315 670.262451,175.570465 
	C656.686401,183.387680 641.966248,189.217880 627.229187,195.662689 
	C626.138916,194.804276 625.636292,194.135239 624.999695,193.637543 
	C619.889587,189.642395 619.637512,184.982697 624.466553,181.028198 
	C627.062866,178.902130 628.614197,176.444580 627.982666,172.970306 
z"/>
<path fill="#AFAFAA" opacity="1.000000" stroke="none" 
	d="
M242.921478,203.178146 
	C243.688370,203.132599 244.455246,203.087036 245.824585,203.289764 
	C247.288345,203.650467 248.149628,203.762878 249.010925,203.875275 
	C252.036148,203.934021 255.061356,203.992783 258.838684,204.331268 
	C268.396637,205.379959 277.202515,206.148926 286.008362,206.917892 
	C292.377563,207.278351 298.746796,207.638809 305.610168,208.352890 
	C307.359161,210.986221 310.013123,213.557495 309.610077,215.491760 
	C308.330231,221.633728 305.910400,227.538177 303.931213,233.534439 
	C285.227264,232.347794 266.523315,231.161163 247.465744,229.493317 
	C247.068756,223.859650 247.515167,218.639511 246.815765,213.577698 
	C246.321442,210.000122 244.275009,206.637009 242.921478,203.178146 
z"/>
<path fill="#7E7C75" opacity="1.000000" stroke="none" 
	d="
M115.985619,182.077911 
	C133.056549,185.770355 150.127472,189.462799 167.567795,193.644989 
	C166.703506,200.076294 165.060547,205.997391 169.111099,211.644836 
	C170.915741,214.160950 172.348389,216.943863 173.949860,219.605682 
	C149.794296,214.021103 125.638733,208.436508 101.230469,202.285522 
	C105.362717,196.612244 109.812050,191.558258 114.083054,186.357803 
	C115.038208,185.194778 115.367950,183.518097 115.985619,182.077911 
z"/>
<path fill="#CBCCC9" opacity="1.000000" stroke="none" 
	d="
M377.998993,208.987518 
	C379.557251,208.658371 381.114075,208.051422 382.673981,208.043396 
	C396.956268,207.969955 411.239075,207.998917 425.521729,208.004333 
	C426.517059,208.004715 427.530060,207.944977 428.504913,208.100555 
	C435.348541,209.192719 436.535797,210.990387 434.907867,217.666107 
	C434.555725,219.110199 434.565674,220.795654 433.788971,221.954529 
	C431.426575,225.479431 432.350769,228.389771 434.948730,231.550568 
	C416.931549,232.886398 398.876556,233.876953 380.401306,234.405121 
	C379.700745,230.658813 378.164764,226.770386 379.395508,224.213913 
	C382.152130,218.487900 379.803192,213.914413 377.998993,208.987518 
z"/>
<path fill="#BABAB6" opacity="1.000000" stroke="none" 
	d="
M304.392151,233.662720 
	C305.910400,227.538177 308.330231,221.633728 309.610077,215.491760 
	C310.013123,213.557495 307.359161,210.986221 306.049530,208.358490 
	C322.683319,208.340790 339.371948,208.671112 356.528748,209.425537 
	C357.208405,213.775665 358.442810,218.010086 357.375397,221.550522 
	C356.006744,226.090103 355.116089,230.194809 356.942200,234.641678 
	C339.579163,234.358109 322.216156,234.074554 304.392151,233.662720 
z"/>
<path fill="#E4E4E3" opacity="1.000000" stroke="none" 
	d="
M627.580322,172.976471 
	C628.614197,176.444580 627.062866,178.902130 624.466553,181.028198 
	C619.637512,184.982697 619.889587,189.642395 624.999695,193.637543 
	C625.636292,194.135239 626.138916,194.804276 626.857910,195.705780 
	C617.466797,199.128433 608.033447,202.658722 598.347961,205.244873 
	C585.946472,208.556274 573.341980,211.107300 560.454834,213.600464 
	C560.950989,210.808746 561.817322,208.402557 562.731323,205.863922 
	C564.536072,206.742966 565.769653,207.343811 565.827515,207.372009 
	C568.497559,205.445480 570.392700,204.101410 572.258057,202.717087 
	C572.773682,202.334381 573.374573,201.916916 573.640930,201.371201 
	C576.131958,196.268295 578.558533,191.133972 581.003784,186.008713 
	C596.395203,181.666687 611.786621,177.324661 627.580322,172.976471 
z"/>
<path fill="#9E9E98" opacity="1.000000" stroke="none" 
	d="
M242.492920,203.131378 
	C244.275009,206.637009 246.321442,210.000122 246.815765,213.577698 
	C247.515167,218.639511 247.068756,223.859650 247.038162,229.408264 
	C234.372940,228.371628 221.781647,226.939133 209.190430,225.505783 
	C207.386917,225.300446 205.583878,225.091080 203.367004,224.378845 
	C202.425262,221.814499 201.918030,219.749283 201.365173,217.696365 
	C199.593155,211.116196 197.804245,204.540573 196.021851,197.963211 
	C202.755249,198.955353 209.488663,199.947510 216.615692,200.883041 
	C225.361008,201.579163 233.712692,202.331894 242.492920,203.131378 
z"/>
<path fill="#DEDEDD" opacity="1.000000" stroke="none" 
	d="
M580.586670,186.005096 
	C578.558533,191.133972 576.131958,196.268295 573.640930,201.371201 
	C573.374573,201.916916 572.773682,202.334381 572.258057,202.717087 
	C570.392700,204.101410 568.497559,205.445480 565.827515,207.372009 
	C565.769653,207.343811 564.536072,206.742966 562.731323,205.863922 
	C561.817322,208.402557 560.950989,210.808746 560.037415,213.584808 
	C545.945984,216.632553 531.901794,219.310425 517.427368,221.536377 
	C516.756165,216.827454 516.479797,212.576797 522.298584,211.691101 
	C522.819824,211.611771 523.466614,210.918350 523.663208,210.369690 
	C525.491882,205.265427 527.234741,200.130402 529.002441,195.004272 
	C545.077576,192.139420 561.152405,189.272629 577.228760,186.414536 
	C578.202698,186.241379 579.189026,186.137573 580.586670,186.005096 
z"/>
<path fill="#D8D8D6" opacity="1.000000" stroke="none" 
	d="
M528.571777,195.001831 
	C527.234741,200.130402 525.491882,205.265427 523.663208,210.369690 
	C523.466614,210.918350 522.819824,211.611771 522.298584,211.691101 
	C516.479797,212.576797 516.756165,216.827454 516.992920,221.516113 
	C507.870575,223.300812 498.752899,224.657074 489.633850,226.003891 
	C488.012115,226.243408 486.384552,226.443771 484.329773,226.433884 
	C477.522339,222.732254 480.157074,218.566589 483.242706,214.691879 
	C485.078735,212.386307 484.556519,210.717316 483.134766,208.571564 
	C481.552551,206.183517 480.362183,203.535858 479.001221,201.001221 
	C486.866852,200.096298 494.737976,199.235916 502.596680,198.274384 
	C511.117493,197.231842 519.626770,196.095078 528.571777,195.001831 
z"/>
<path fill="#D4D4D2" opacity="1.000000" stroke="none" 
	d="
M478.536530,201.000443 
	C480.362183,203.535858 481.552551,206.183517 483.134766,208.571564 
	C484.556519,210.717316 485.078735,212.386307 483.242706,214.691879 
	C480.157074,218.566589 477.522339,222.732254 483.942871,226.565384 
	C471.931366,228.249207 459.876831,229.573181 447.407959,230.907516 
	C449.256592,224.689270 451.519592,218.460678 453.767395,212.273865 
	C447.653748,205.797119 439.314758,207.175735 431.491333,206.730042 
	C431.532227,206.202316 431.573151,205.674576 431.614044,205.146851 
	C447.099976,203.764465 462.585907,202.382065 478.536530,201.000443 
z"/>
<path fill="#898882" opacity="1.000000" stroke="none" 
	d="
M195.716553,197.725494 
	C197.804245,204.540573 199.593155,211.116196 201.365173,217.696365 
	C201.918030,219.749283 202.425262,221.814499 202.943344,224.249786 
	C193.539459,223.046783 184.145630,221.468079 174.350830,219.747528 
	C172.348389,216.943863 170.915741,214.160950 169.111099,211.644836 
	C165.060547,205.997391 166.703506,200.076294 167.932449,193.758575 
	C177.088898,194.750885 186.250061,196.119324 195.716553,197.725494 
z"/>
<path fill="#C3C3C0" opacity="1.000000" stroke="none" 
	d="
M357.407410,234.745056 
	C355.116089,230.194809 356.006744,226.090103 357.375397,221.550522 
	C358.442810,218.010086 357.208405,213.775665 356.997253,209.426636 
	C363.695007,209.000412 370.392456,208.997177 377.544434,208.990723 
	C379.803192,213.914413 382.152130,218.487900 379.395508,224.213913 
	C378.164764,226.770386 379.700745,230.658813 379.970520,234.339417 
	C372.597504,234.773514 365.235077,234.810974 357.407410,234.745056 
z"/>
<path fill="#726F68" opacity="1.000000" stroke="none" 
	d="
M115.668083,181.925446 
	C115.367950,183.518097 115.038208,185.194778 114.083054,186.357803 
	C109.812050,191.558258 105.362717,196.612244 100.930458,202.104355 
	C94.735863,200.290909 88.588577,198.092239 82.171341,195.706451 
	C82.776909,194.002258 83.396057,192.239075 84.573814,191.012100 
	C88.906876,186.497925 93.425194,182.161575 97.928772,177.424210 
	C103.772675,178.651077 109.561607,180.212036 115.668083,181.925446 
z"/>
<path fill="#CECFD0" opacity="1.000000" stroke="none" 
	d="
M358.668121,18.003653 
	C358.458466,19.285803 357.914917,20.543825 357.371399,21.801846 
	C357.223450,20.776306 357.075500,19.750767 356.962158,18.376759 
	C357.442566,18.012035 357.888397,17.995781 358.668121,18.003653 
z"/>
<path fill="#CECFD0" opacity="1.000000" stroke="none" 
	d="
M344.600708,18.005690 
	C344.154541,20.761988 342.801849,20.647898 341.063080,18.380480 
	C342.066986,18.019018 343.134033,17.999329 344.600708,18.005690 
z"/>
<path fill="#CECFD0" opacity="1.000000" stroke="none" 
	d="
M338.667572,18.012707 
	C338.765808,18.546808 338.530762,19.055452 338.295685,19.564095 
	C337.890472,19.251804 337.485229,18.939518 337.039612,18.333958 
	C337.444214,18.022875 337.889221,18.005062 338.667572,18.012707 
z"/>
<path fill="#CBCCCE" opacity="1.000000" stroke="none" 
	d="
M13.947613,134.059723 
	C14.386735,134.538193 14.557549,135.094681 14.550507,135.916138 
	C14.141535,135.499969 13.910419,134.818848 13.947613,134.059723 
z"/>
<path fill="#CBCCCE" opacity="1.000000" stroke="none" 
	d="
M286.005829,206.491058 
	C277.202515,206.148926 268.396637,205.379959 259.292236,204.335480 
	C256.927155,202.297760 254.860641,200.535538 252.794128,198.773315 
	C252.985321,198.207352 253.176514,197.641388 253.367706,197.075439 
	C255.657196,197.456284 257.946655,197.837112 260.840088,198.318420 
	C265.368896,196.803482 267.969879,192.816422 268.224243,186.963226 
	C268.619995,187.129089 269.015778,187.294952 269.411530,187.460800 
	C269.768616,189.111771 270.125671,190.762741 270.479736,192.399826 
	C275.882080,192.399826 281.166565,192.399826 286.451050,192.399826 
	C286.632629,192.890472 286.814178,193.381104 286.995758,193.871750 
	C285.447540,194.462906 283.908539,195.079834 282.347717,195.635651 
	C281.398407,195.973679 280.415527,196.217377 279.447723,196.503448 
	C280.069916,197.302094 280.710358,198.805405 281.311462,198.789825 
	C287.035645,198.641495 285.916443,202.709869 286.005829,206.491058 
z"/>
<path fill="#CBCCCE" opacity="1.000000" stroke="none" 
	d="
M248.999146,203.525497 
	C248.149628,203.762878 247.288345,203.650467 246.209229,203.290588 
	C246.515976,202.411484 247.040527,201.779846 247.565094,201.148224 
	C248.039200,201.824051 248.513275,202.499893 248.999146,203.525497 
z"/>
<path fill="#CECFD0" opacity="1.000000" stroke="none" 
	d="
M267.695709,160.810913 
	C268.994415,159.722534 270.038666,158.893005 272.067505,157.281311 
	C270.915741,161.890366 270.315979,165.167938 269.206818,168.262939 
	C268.807190,169.377945 267.295319,170.406921 266.074921,170.794296 
	C265.377686,171.015594 263.536377,169.952072 263.458832,169.315048 
	C263.305664,168.056717 263.809845,166.582657 264.428436,165.399750 
	C265.236786,163.853973 266.419556,162.503983 267.695709,160.810913 
z"/>
<path fill="#CECFD0" opacity="1.000000" stroke="none" 
	d="
M210.851532,172.664902 
	C213.073639,171.814041 215.014557,171.239670 218.699158,170.149261 
	C217.722687,173.946945 217.782440,176.990005 216.302460,178.321030 
	C215.312790,179.211060 212.072769,177.827652 210.005386,177.031494 
	C209.712143,176.918579 210.358734,174.365204 210.851532,172.664902 
z"/>
<path fill="#CECFD0" opacity="1.000000" stroke="none" 
	d="
M275.784180,148.920776 
	C274.971985,149.498352 273.395905,150.004562 273.324493,149.843597 
	C272.468018,147.911987 271.645294,145.918732 271.239777,143.857742 
	C271.086273,143.077347 272.029449,142.081161 272.472717,141.183319 
	C273.272278,141.867706 274.482758,142.408112 274.783813,143.267166 
	C275.366394,144.929718 275.436707,146.771790 275.784180,148.920776 
z"/>
<path fill="#CECFD0" opacity="1.000000" stroke="none" 
	d="
M278.720825,122.524292 
	C275.578796,119.932983 276.815491,118.349823 281.093964,117.688637 
	C280.421234,119.261063 279.748474,120.833488 278.720825,122.524292 
z"/>
<path fill="#CECFD0" opacity="1.000000" stroke="none" 
	d="
M366.380157,33.177811 
	C365.889069,29.350908 367.533722,28.539249 371.269440,30.756296 
	C369.709229,31.660315 368.149017,32.564335 366.380157,33.177811 
z"/>
<path fill="#CECFD0" opacity="1.000000" stroke="none" 
	d="
M353.721191,68.515900 
	C354.079498,69.828865 354.140137,70.969452 354.200745,72.110039 
	C352.949005,72.110039 351.697266,72.110039 350.445526,72.110039 
	C350.297150,71.647903 350.148773,71.185760 350.000397,70.723625 
	C351.141449,69.930260 352.282471,69.136894 353.721191,68.515900 
z"/>
<path fill="#CECFD0" opacity="1.000000" stroke="none" 
	d="
M256.296143,160.868607 
	C255.821487,159.961380 255.556213,159.321228 255.290939,158.681076 
	C255.645691,158.443130 256.000427,158.205185 256.355164,157.967239 
	C257.669525,159.532303 258.983856,161.097366 260.298187,162.662415 
	C259.829742,163.073792 259.361328,163.485153 258.892883,163.896515 
	C258.097107,162.976242 257.301300,162.055954 256.296143,160.868607 
z"/>
<path fill="#CECFD0" opacity="1.000000" stroke="none" 
	d="
M366.000000,52.000153 
	C367.103546,51.494225 368.207062,50.988300 369.428894,50.428146 
	C368.458466,53.640453 368.458466,53.640453 366.051514,52.335773 
	C366.000000,52.000000 366.000000,52.000153 366.000000,52.000153 
z"/>
<path fill="#CECFD0" opacity="1.000000" stroke="none" 
	d="
M366.000000,51.999924 
	C365.123108,51.439705 364.246185,50.879555 363.369293,50.319405 
	C363.767517,49.936848 364.165741,49.554295 364.563965,49.171745 
	C365.038177,49.876541 365.512421,50.581329 365.993317,51.643135 
	C366.000000,52.000153 366.000000,52.000000 366.000000,51.999924 
z"/>
<path fill="#CECFD0" opacity="1.000000" stroke="none" 
	d="
M290.355072,129.459686 
	C290.882111,129.842941 291.145203,130.361923 291.408295,130.880890 
	C290.869873,131.104736 290.331421,131.328583 289.792999,131.552429 
	C289.892365,130.900101 289.991730,130.247757 290.355072,129.459686 
z"/>
<path fill="#CECFD0" opacity="1.000000" stroke="none" 
	d="
M201.393082,174.954468 
	C201.790176,174.712173 202.185196,174.713882 202.578033,174.744156 
	C202.589066,174.745010 202.576584,175.051193 202.575058,175.215027 
	C202.180283,175.210831 201.785492,175.206635 201.393082,174.954468 
z"/>
<path fill="#CECFD0" opacity="1.000000" stroke="none" 
	d="
M367.393005,38.954460 
	C367.790100,38.712135 368.185150,38.713829 368.578003,38.744110 
	C368.589050,38.744968 368.576569,39.051193 368.575073,39.215023 
	C368.180267,39.210846 367.785492,39.206665 367.393005,38.954460 
z"/>
<path fill="#CECFD0" opacity="1.000000" stroke="none" 
	d="
M262.608215,159.533737 
	C263.058441,159.649902 263.334473,159.933456 263.589172,160.234985 
	C263.595673,160.242691 263.368286,160.447998 263.249969,160.561142 
	C262.977051,160.275253 262.704163,159.989349 262.608215,159.533737 
z"/>
<path fill="#CECFD0" opacity="1.000000" stroke="none" 
	d="
M281.606903,108.045502 
	C281.209869,108.287819 280.814880,108.286140 280.422058,108.255875 
	C280.410980,108.255028 280.423462,107.948814 280.424927,107.784996 
	C280.819702,107.789169 281.214447,107.793343 281.606903,108.045502 
z"/>
<path fill="#CECFD0" opacity="1.000000" stroke="none" 
	d="
M320.391724,103.466270 
	C319.941498,103.350105 319.665497,103.066566 319.410767,102.765030 
	C319.404297,102.757355 319.631714,102.552040 319.750031,102.438873 
	C320.022949,102.724762 320.295837,103.010651 320.391724,103.466270 
z"/>
</svg>