<?xml version="1.0" encoding="utf-8"?>
<!-- Generator: Adobe Illustrator 18.1.1, SVG Export Plug-In . SVG Version: 6.00 Build 0)  -->
<svg version="1.1" id="Layer_1" xmlns="http://www.w3.org/2000/svg" xmlns:xlink="http://www.w3.org/1999/xlink" x="0px" y="0px"
	 width="142px" height="62.5px" viewBox="37.172 167.703 142 62.5" enable-background="new 37.172 167.703 142 62.5"
	 xml:space="preserve">
<path fill="#BA7E4F" d="M153,199.656c-0.203,0.344-0.141,0.609-0.141,0.859c0,2.656-0.016,5.313,0.031,7.969
	c0.016,0.766-0.344,1.172-0.969,1.422c-1.516,0.578-3.094,0.656-4.672,0.234c-1.063-0.281-1.438-0.828-1.438-1.922
	c0.016-10.703,0.031-21.391,0.047-32.094c0-1.328,0.25-1.656,1.5-1.953c1.359-0.313,2.719-0.375,4.094-0.063
	c1.016,0.234,1.25,0.516,1.25,1.531c0,4.375,0.016,8.75,0.016,13.125c0,0.469,0,0.922,0,1.375c0.422,0.156,0.594-0.141,0.813-0.297
	c3.063-2.328,6.125-4.656,9.172-7c0.438-0.344,0.859-0.578,1.406-0.281c1.75,0.906,2.922,2.281,3.453,4.203
	c0.219,0.797-0.047,1.391-0.719,1.891c-2.641,1.938-5.266,3.906-7.891,5.859c-0.172,0.125-0.328,0.25-0.531,0.422
	c0.359,0.547,0.938,0.828,1.406,1.188c3.375,2.594,6.766,5.188,10.172,7.75c1.094,0.828,1.094,1.016,0.719,2.234
	c-0.438,1.453-1.359,2.625-2.594,3.531c-0.922,0.672-1.578,0.563-2.641-0.266c-3.453-2.688-6.906-5.344-10.359-8.016
	C154.438,200.781,153.75,200.234,153,199.656z"/>
<path fill="#BA7E4F" d="M135.813,208.453c-1.219,0.703-2.438,1.203-3.75,1.438c-4.891,0.875-9.781-1.594-12.109-6.188
	c-1.469-2.891-2-5.969-1.656-9.219c0.328-3.094,1.375-5.859,3.469-8.172c3.25-3.578,8.953-4.781,13.406-2.859
	c0.266,0.109,0.516,0.203,0.875,0.344c0-1.172,0.875-1.359,1.672-1.484c1.359-0.203,2.75-0.25,4.094,0.125
	c0.656,0.188,1.047,0.516,1.047,1.313c0.031,8.203,0.078,16.391,0.141,24.578c0,0.781-0.281,1.234-0.953,1.516
	c-1.469,0.609-3,0.844-4.578,0.469C136.578,210.094,135.875,209.594,135.813,208.453z M124.859,196.078
	c-0.078,1.5,0.297,2.906,0.938,4.266c1.594,3.344,5.266,4.016,7.906,1.438c2.406-2.344,2.984-6.766,1.328-9.672
	c-1.938-3.375-6.719-3.719-8.844-0.766C125.203,192.75,124.797,194.344,124.859,196.078z"/>
<path fill="#BA7E4F" d="M61.703,198.172c0.359-0.891,0.656-1.594,0.922-2.313c2.531-6.797,5.063-13.578,7.578-20.375
	c0.266-0.703,0.688-1.047,1.438-1.078c1.609-0.047,3.094,0.266,4.375,1.281c0.766,0.609,0.922,1.187,0.578,2.141
	c-2.688,7.422-5.391,14.844-8.094,22.266c-0.938,2.594-1.938,5.156-2.781,7.781c-0.406,1.297-1.141,2-2.438,2.109
	c-1.219,0.109-2.438,0.125-3.625-0.266c-0.625-0.219-1.047-0.594-1.312-1.219c-1.844-4.578-3.594-9.188-5.297-13.813
	c-2.063-5.547-4.078-11.125-6.141-16.672c-0.484-1.297-0.344-1.953,1-2.797c1.141-0.734,2.453-1,3.797-0.938
	c0.734,0.031,1.219,0.313,1.5,1.094c1.984,5.438,4.031,10.859,6.062,16.297C60.047,193.766,60.844,195.875,61.703,198.172z"/>
<path fill="#BA7E4F" d="M103.563,200.484c0.781-1.594,1.5-3.047,2.203-4.516c1.844-3.813,3.672-7.625,5.5-11.453
	c0.25-0.516,0.578-0.75,1.156-0.719c1.844,0.094,3.406,0.859,4.766,2.063c0.406,0.359,0.453,0.766,0.203,1.266
	c-2.953,6.188-5.906,12.391-8.859,18.578c-0.328,0.688-0.719,1.328-0.953,2.047c-0.422,1.297-1.375,1.766-2.594,1.813
	c-0.922,0.047-1.859,0.047-2.797-0.094c-1.141-0.156-1.734-0.672-2.219-1.734c-2.781-6.188-5.953-12.188-9.031-18.234
	c-0.422-0.828-0.828-1.672-1.281-2.5c-0.281-0.516-0.203-0.953,0.219-1.328c1.281-1.141,2.781-1.797,4.469-2.031
	c0.734-0.109,1.172,0.219,1.516,0.922c1.969,4.156,4,8.281,6,12.422C102.406,198.094,102.953,199.219,103.563,200.484z"/>
<path fill="#BA7E4F" d="M86.594,196.828c0,3.844-0.016,7.703,0.016,11.547c0,0.734-0.266,1.25-0.891,1.484
	c-1.641,0.609-3.313,0.813-5.016,0.188c-0.891-0.328-1.281-0.938-1.266-1.906c0.109-7.594,0.219-15.188,0.297-22.797
	c0-0.625,0.266-0.969,0.813-1.172c1.609-0.594,3.25-0.609,4.906-0.281c0.656,0.125,1.047,0.484,1.047,1.297
	c-0.047,3.875-0.016,7.75-0.016,11.625C86.5,196.828,86.547,196.828,86.594,196.828z"/>
<path fill="#BA7E4F" d="M83.188,175.031c2.172,0,3.813,1.703,3.781,3.891c-0.031,2.266-1.609,3.797-3.875,3.766
	c-2.297-0.031-3.969-1.641-3.953-3.828C79.156,176.625,80.859,175.031,83.188,175.031z"/>
<path fill="#8DC9AC" d="M74.672,223.719l-1.406-2.141h-1.25v2.141h-0.75v-6.031h2.203c0.266,0,0.516,0.047,0.75,0.156
	s0.438,0.234,0.609,0.422c0.172,0.172,0.313,0.391,0.422,0.625c0.109,0.234,0.156,0.484,0.156,0.75c0,0.219-0.031,0.422-0.094,0.609
	c-0.063,0.203-0.156,0.375-0.281,0.531c-0.125,0.156-0.266,0.313-0.422,0.422c-0.156,0.125-0.344,0.219-0.547,0.281l1.484,2.234
	C75.547,223.719,74.672,223.719,74.672,223.719z M72.016,220.828h1.453c0.156,0,0.313-0.031,0.469-0.094
	c0.141-0.063,0.266-0.156,0.375-0.266s0.188-0.234,0.25-0.375s0.094-0.297,0.094-0.469c0-0.156-0.031-0.313-0.094-0.469
	c-0.063-0.141-0.141-0.266-0.25-0.375c-0.109-0.109-0.234-0.188-0.375-0.25c-0.141-0.063-0.297-0.094-0.469-0.094h-1.453V220.828z"
	/>
<path fill="#8DC9AC" d="M81.953,218.406v1.938h2.891v0.719h-2.891V223h3.391v0.719h-4.141v-6.031h4.141v0.719H81.953z"/>
<path fill="#8DC9AC" d="M94.266,221.109c0.109,0.141,0.203,0.281,0.266,0.453c0.063,0.172,0.094,0.344,0.094,0.516
	c0.016,0.375-0.094,0.703-0.313,0.984c-0.172,0.25-0.422,0.438-0.719,0.563c-0.266,0.125-0.547,0.188-0.859,0.188
	c-0.281,0-0.547-0.047-0.797-0.141c-0.25-0.094-0.484-0.219-0.672-0.391c-0.094-0.094-0.188-0.188-0.266-0.281
	c-0.078-0.094-0.141-0.203-0.188-0.328c-0.016-0.031-0.031-0.078-0.047-0.109c-0.016-0.031-0.031-0.078-0.047-0.125l0.703-0.281
	c0.047,0.219,0.172,0.406,0.344,0.547c0.25,0.234,0.578,0.344,0.969,0.344c0.094,0,0.203-0.016,0.281-0.031
	c0.094-0.016,0.188-0.047,0.266-0.094c0.172-0.063,0.313-0.172,0.406-0.313c0.109-0.156,0.172-0.328,0.172-0.516
	c0-0.203-0.063-0.375-0.188-0.516c-0.141-0.172-0.328-0.313-0.547-0.406c-0.219-0.094-0.438-0.188-0.656-0.266l-0.031-0.016
	c-0.109-0.047-0.219-0.078-0.344-0.125c-0.125-0.047-0.234-0.109-0.359-0.172c-0.281-0.156-0.5-0.359-0.656-0.609
	c-0.203-0.344-0.234-0.719-0.125-1.125c0.063-0.219,0.172-0.422,0.313-0.609c0.156-0.188,0.328-0.328,0.516-0.422
	c0.328-0.156,0.672-0.234,1.047-0.219c0.359,0.016,0.703,0.125,1,0.328c0.219,0.141,0.391,0.313,0.516,0.531
	c0.047,0.063,0.078,0.125,0.109,0.203l-0.703,0.281l-0.047-0.109c-0.078-0.125-0.172-0.219-0.281-0.281
	c-0.188-0.125-0.406-0.188-0.641-0.203c-0.109,0-0.234,0-0.344,0.031c-0.109,0.016-0.219,0.063-0.313,0.109
	c-0.109,0.047-0.203,0.125-0.281,0.234s-0.141,0.219-0.172,0.344c-0.016,0.063-0.031,0.141-0.031,0.234
	c0,0.094,0.031,0.188,0.094,0.297c0.078,0.141,0.219,0.266,0.406,0.344c0.188,0.094,0.375,0.156,0.563,0.234l0.031,0.016
	c0.125,0.047,0.25,0.094,0.391,0.156c0.141,0.047,0.281,0.109,0.406,0.188c0.141,0.063,0.266,0.156,0.391,0.25
	C94.047,220.859,94.156,220.969,94.266,221.109z"/>
<path fill="#8DC9AC" d="M102.125,218.406v5.313h-0.75v-5.313h-1.594v-0.719h3.938v0.719H102.125z"/>
<path fill="#8DC9AC" d="M111.969,217.609c0.438,0,0.828,0.078,1.219,0.234c0.375,0.156,0.703,0.375,0.984,0.656
	c0.281,0.281,0.5,0.609,0.672,0.984c0.156,0.375,0.25,0.781,0.25,1.219c0,0.422-0.078,0.828-0.25,1.203
	c-0.156,0.375-0.391,0.703-0.672,0.984c-0.281,0.281-0.609,0.5-0.984,0.672c-0.375,0.156-0.781,0.25-1.219,0.25
	c-0.422,0-0.828-0.078-1.203-0.25c-0.375-0.156-0.703-0.391-0.984-0.672s-0.5-0.609-0.672-0.984c-0.156-0.375-0.25-0.781-0.25-1.203
	c0-0.438,0.078-0.828,0.25-1.219c0.156-0.375,0.391-0.703,0.672-0.984s0.609-0.5,0.984-0.656S111.531,217.609,111.969,217.609z
	 M111.969,223.047c0.328,0,0.641-0.063,0.922-0.188s0.531-0.297,0.75-0.5c0.219-0.219,0.375-0.469,0.5-0.75s0.188-0.594,0.188-0.906
	c0-0.328-0.063-0.625-0.188-0.922c-0.125-0.281-0.297-0.531-0.5-0.75c-0.219-0.219-0.469-0.375-0.75-0.5s-0.594-0.188-0.922-0.188
	s-0.625,0.063-0.906,0.188s-0.531,0.297-0.75,0.5c-0.219,0.219-0.375,0.453-0.5,0.75c-0.125,0.281-0.188,0.594-0.188,0.922
	s0.063,0.625,0.188,0.906s0.297,0.531,0.5,0.75c0.219,0.219,0.469,0.375,0.75,0.5S111.641,223.047,111.969,223.047z"/>
<path fill="#8DC9AC" d="M124.313,220.531c0.25,0.156,0.469,0.359,0.609,0.609c0.156,0.266,0.234,0.547,0.234,0.859
	c0,0.234-0.047,0.453-0.125,0.656c-0.094,0.203-0.203,0.391-0.359,0.531c-0.156,0.156-0.328,0.281-0.531,0.375
	c-0.203,0.094-0.422,0.141-0.656,0.156h-2.719v-6.031h2.344c0.234,0,0.453,0.047,0.656,0.125c0.203,0.094,0.375,0.203,0.531,0.359
	s0.266,0.328,0.359,0.531s0.125,0.422,0.125,0.656c0,0.219-0.047,0.437-0.125,0.641
	C124.578,220.203,124.469,220.375,124.313,220.531z M121.516,220.281h1.594c0.125,0,0.25-0.031,0.359-0.078
	c0.109-0.047,0.203-0.109,0.297-0.203c0.078-0.078,0.156-0.172,0.203-0.281c0.047-0.109,0.063-0.234,0.063-0.359
	s-0.031-0.25-0.078-0.359c-0.047-0.109-0.109-0.203-0.203-0.297c-0.078-0.078-0.188-0.156-0.297-0.203s-0.234-0.063-0.359-0.063
	H121.5v1.844H121.516z M123.453,222.969c0.141,0,0.266-0.031,0.375-0.094c0.109-0.047,0.219-0.125,0.313-0.203
	c0.094-0.094,0.156-0.188,0.203-0.313s0.078-0.25,0.078-0.375c0-0.125-0.031-0.266-0.078-0.375s-0.125-0.219-0.203-0.313
	c-0.094-0.094-0.188-0.156-0.313-0.219c-0.109-0.047-0.234-0.078-0.375-0.078h-1.938v1.969
	C121.516,222.969,123.453,222.969,123.453,222.969z"/>
<path fill="#8DC9AC" d="M134.531,222.219h-2.828l-0.609,1.5h-0.75l2.391-6.031h0.75l2.391,6.031h-0.75L134.531,222.219z
	 M134.266,221.5l-1.141-2.859L132,221.5H134.266z"/>
<path fill="#8DC9AC" d="M144.781,223.719l-1.406-2.141h-1.25v2.141h-0.75v-6.031h2.188c0.266,0,0.516,0.047,0.75,0.156
	s0.438,0.234,0.609,0.422s0.313,0.391,0.422,0.625s0.156,0.484,0.156,0.75c0,0.219-0.031,0.422-0.094,0.609
	c-0.063,0.203-0.156,0.375-0.281,0.531c-0.125,0.156-0.266,0.313-0.422,0.422c-0.156,0.125-0.344,0.219-0.547,0.281l1.484,2.234
	C145.641,223.719,144.781,223.719,144.781,223.719z M142.109,220.828h1.453c0.156,0,0.313-0.031,0.469-0.094
	c0.141-0.063,0.266-0.156,0.375-0.266s0.188-0.234,0.25-0.375s0.094-0.297,0.094-0.469c0-0.156-0.031-0.313-0.094-0.469
	c-0.063-0.141-0.141-0.266-0.25-0.375c-0.109-0.109-0.234-0.188-0.375-0.25c-0.141-0.063-0.297-0.094-0.469-0.094h-1.453V220.828z"
	/>
</svg>
